<?xml version="1.0" standalone="no"?>
<!DOCTYPE svg PUBLIC "-//W3C//DTD SVG 1.1//EN" "http://www.w3.org/Graphics/SVG/1.1/DTD/svg11.dtd" >
<svg xmlns="http://www.w3.org/2000/svg" xmlns:xlink="http://www.w3.org/1999/xlink" version="1.1">
<metadata>
Created by FontForge 20190801 at Tue Mar 15 01:12:02 2016
 By Jimmy Wärting
www.cadsondemak.com/eula
</metadata>
<defs>
<font id="SukhumvitTadmai-ExtraBold" horiz-adv-x="0" >
  <font-face 
    font-family="Sukhumvit Tadmai ExtraBold"
    font-weight="750"
    font-stretch="normal"
    units-per-em="1000"
    panose-1="2 0 5 6 0 0 0 2 0 4"
    ascent="750"
    descent="-250"
    x-height="483"
    cap-height="674"
    bbox="-656 -481 1148 1134"
    underline-thickness="40"
    underline-position="-125"
    stemh="126"
    stemv="155"
    unicode-range="U+000D-FB02"
  />
<missing-glyph horiz-adv-x="515" 
d="M455 0h-395v673h395v-673zM392 63v548h-270v-548h270z" />
    <glyph glyph-name="uni0E4F.liga" unicode="&#xe4f;&#x22;" horiz-adv-x="546" 
d="M229 490h-73l-18 198h109zM273 26c-118 0 -213 97 -213 214c0 118 95 213 213 213s213 -95 213 -213c0 -117 -95 -214 -213 -214zM273 71c94 0 169 75 169 169c0 92 -75 169 -169 169c-92 0 -169 -77 -169 -169c0 -94 77 -169 169 -169zM273 117c-69 0 -124 54 -124 122
c0 70 56 124 123 124c69 0 124 -55 124 -123c0 -69 -56 -123 -123 -123zM273 193c24 0 45 20 45 47c0 24 -21 45 -46 45c-24 0 -46 -21 -46 -46c0 -24 20 -46 47 -46zM390 490h-73l-18 198h109z" />
    <glyph glyph-name="uni0E24.liga" unicode="&#xe24;&#xe32;" horiz-adv-x="976" 
d="M915 -200h-155v543c0 72 -40 104 -103 104c-41 0 -75 -13 -99 -30c7 -21 11 -46 11 -73v-544h-155v543c0 72 -41 104 -105 104c-53 0 -98 -27 -117 -55l71 -53v-30c-31 -13 -47 -40 -47 -81v-95c0 -10 5 -15 15 -15h59v-118h-108c-80 0 -121 43 -121 110v119
c0 43 22 78 54 97l-82 64c27 92 132 183 282 183c76 0 136 -22 179 -58c43 33 102 58 181 58c149 0 240 -96 240 -229v-544z" />
    <glyph glyph-name="uni0E26.liga" unicode="&#xe26;&#xe32;" horiz-adv-x="984" 
d="M923 -200h-156v543c0 72 -41 104 -102 104c-41 0 -75 -13 -98 -30c7 -24 11 -48 11 -73v-544h-156v543c0 72 -41 104 -106 104c-53 0 -99 -27 -118 -55l84 -58v-29c-29 -13 -43 -36 -43 -77v-118c0 -67 -42 -110 -121 -110h-95v118h46c9 0 14 5 14 15v96
c0 43 19 75 52 92l-96 69c27 93 132 183 283 183c76 0 137 -22 180 -58c43 33 102 58 181 58c149 0 240 -96 240 -229v-544z" />
    <glyph glyph-name="uni0E5A" unicode="&#xe2f;&#xe2f;" horiz-adv-x="839" 
d="M777 0h-155v369c-23 -39 -60 -72 -116 -81v-288h-155v369c-27 -47 -76 -78 -152 -78c-115 0 -174 80 -174 204v65h154v-65c0 -53 19 -83 60 -83c56 0 113 39 113 114v34h154v-160c63 3 117 51 117 126v34h154v-560z" />
    <glyph glyph-name="fi" unicode="fi" horiz-adv-x="611" 
d="M548 0h-154v375h-166v-375h-150v375h-71v108h71c0 128 74 202 213 202c57 0 115 -15 150 -34l-31 -92c-19 9 -46 19 -87 19c-69 0 -95 -31 -95 -95h320v-483z" />
    <glyph glyph-name="fl" unicode="fl" horiz-adv-x="646" 
d="M582 0h-153v566c-28 7 -60 12 -95 12c-81 0 -106 -31 -106 -95h126v-108h-126v-375h-150v375h-71v108h71c0 123 84 204 255 204c100 0 185 -23 249 -47v-640z" />
    <glyph glyph-name=".notdef" horiz-adv-x="515" 
d="M455 0h-395v673h395v-673zM392 63v548h-270v-548h270z" />
    <glyph glyph-name=".null" 
 />
    <glyph glyph-name=".null" 
 />
    <glyph glyph-name="CR" unicode="&#xd;" horiz-adv-x="194" 
 />
    <glyph glyph-name="space" unicode=" " horiz-adv-x="220" 
 />
    <glyph glyph-name="percent" unicode="%" horiz-adv-x="805" 
d="M292 0h-134l356 660h133zM184 395c25 0 38 38 38 90c0 53 -13 91 -38 91c-27 0 -39 -38 -39 -91c0 -52 12 -90 39 -90zM184 307c-96 0 -157 77 -157 178c0 103 61 179 157 179c94 0 156 -76 156 -179c0 -101 -62 -178 -156 -178zM622 75c25 0 39 38 39 90
c0 53 -14 91 -39 91s-39 -38 -39 -91c0 -52 14 -90 39 -90zM622 -13c-94 0 -156 77 -156 178c0 103 62 179 156 179s156 -76 156 -179c0 -101 -62 -178 -156 -178z" />
    <glyph glyph-name="ampersand" unicode="&#x26;" horiz-adv-x="661" 
d="M655 0h-176l-34 39c-41 -32 -100 -52 -160 -52c-165 0 -245 96 -245 206c0 84 48 140 115 183v1l-5 5c-35 43 -67 89 -67 140c0 101 76 165 201 165c144 0 191 -74 191 -154c0 -85 -60 -134 -128 -175l113 -131c9 16 15 42 15 73v57h149v-57c0 -81 -29 -144 -69 -184z
M360 137l-118 138c-29 -22 -44 -48 -44 -78c0 -45 35 -76 94 -76c25 0 49 7 68 16zM265 454l6 -7c35 19 57 43 57 76c0 27 -15 51 -46 51c-35 0 -49 -21 -49 -49c0 -19 15 -52 32 -71z" />
    <glyph glyph-name="quotesingle" unicode="'" horiz-adv-x="215" 
d="M156 452h-96l-16 236h127z" />
    <glyph glyph-name="parenleft" unicode="(" horiz-adv-x="330" 
d="M324 -64l-42 -65c-121 73 -228 195 -228 416s107 343 228 416l42 -65c-87 -58 -128 -211 -128 -351c0 -139 41 -293 128 -351z" />
    <glyph glyph-name="parenright" unicode=")" horiz-adv-x="330" 
d="M48 -129l-42 65c87 58 128 212 128 351c0 140 -41 293 -128 351l42 65c121 -73 228 -195 228 -416s-107 -343 -228 -416z" />
    <glyph glyph-name="asterisk" unicode="*" horiz-adv-x="475" 
d="M372 306l-93 89l27 -135h-135l26 136l-95 -90l-72 83l142 77l-141 76l72 83l93 -86l-25 135h133l-25 -135l93 86l71 -83l-141 -76l143 -77z" />
    <glyph glyph-name="plus" unicode="+" horiz-adv-x="600" 
d="M374 70h-147v155h-154v118h154v154h147v-154h153v-118h-153v-155z" />
    <glyph glyph-name="comma" unicode="," horiz-adv-x="278" 
d="M140 -124h-104l27 277h174z" />
    <glyph glyph-name="hyphen" unicode="-" horiz-adv-x="340" 
d="M320 194h-300v118h300v-118z" />
    <glyph glyph-name="period" unicode="." horiz-adv-x="278" 
d="M232 77c0 -47 -33 -90 -93 -90s-93 43 -93 90s33 91 93 91s93 -44 93 -91z" />
    <glyph glyph-name="slash" unicode="/" horiz-adv-x="404" 
d="M128 -40h-132l280 714h132z" />
    <glyph glyph-name="zero" unicode="0" horiz-adv-x="600" 
d="M300 -13c-164 0 -266 126 -266 338s102 339 266 339c163 0 265 -127 265 -339s-102 -338 -265 -338zM300 113c65 0 109 67 109 212s-44 213 -109 213s-109 -68 -109 -213s44 -212 109 -212z" />
    <glyph glyph-name="one" unicode="1" horiz-adv-x="600" 
d="M534 0h-450v133l149 -2v372l-129 -27v115l168 59h116v-519l146 2v-133z" />
    <glyph glyph-name="two" unicode="2" horiz-adv-x="600" 
d="M527 0h-472v100l144 144c109 109 160 155 160 222c0 44 -27 72 -86 72c-64 0 -119 -14 -167 -38l-34 113c49 27 128 51 207 51c153 0 235 -68 235 -189c0 -108 -97 -199 -203 -297l-49 -47h265v-131z" />
    <glyph glyph-name="three" unicode="3" horiz-adv-x="600" 
d="M50 38l34 117c49 -27 124 -43 181 -43c72 0 123 37 123 90c0 47 -46 74 -106 74h-110v116h110c47 0 88 27 88 74c0 43 -36 72 -107 72c-60 0 -125 -16 -174 -41l-35 116c47 24 129 51 222 51c164 0 248 -81 248 -181c0 -72 -40 -118 -100 -143c65 -16 120 -70 120 -149
c0 -128 -110 -204 -260 -204c-96 0 -190 23 -234 51z" />
    <glyph glyph-name="four" unicode="4" horiz-adv-x="600" 
d="M342 232v202l-148 -202h148zM493 0h-155v112h-306v99l329 439h132v-418h70v-120h-70v-112z" />
    <glyph glyph-name="five" unicode="5" horiz-adv-x="600" 
d="M46 36l40 122c47 -27 105 -44 177 -44c83 0 119 44 119 97c0 60 -39 92 -111 92h-190v90l26 257h390v-131h-260l-7 -89h42c175 0 266 -76 266 -217c0 -135 -105 -226 -273 -226c-93 0 -166 16 -219 49z" />
    <glyph glyph-name="six" unicode="6" horiz-adv-x="600" 
d="M203 281c1 -107 52 -171 116 -171c56 0 92 42 92 110c0 67 -36 100 -95 100c-51 0 -86 -16 -113 -39zM509 612l-38 -105c-32 20 -69 33 -116 33c-99 0 -139 -65 -150 -154c29 23 78 45 150 45c107 0 202 -65 202 -205s-98 -239 -237 -239c-162 0 -270 117 -270 333
c0 221 125 344 280 344c75 0 134 -21 179 -52z" />
    <glyph glyph-name="seven" unicode="7" horiz-adv-x="600" 
d="M299 0h-167l231 520h-295v130h472v-104z" />
    <glyph glyph-name="eight" unicode="8" horiz-adv-x="600" 
d="M399 193c0 52 -36 82 -99 82s-99 -30 -99 -82c0 -55 43 -85 99 -85s99 30 99 85zM441 341c57 -22 110 -79 110 -154c0 -127 -100 -200 -251 -200s-251 73 -251 200c0 75 53 132 110 154c-53 27 -93 78 -93 146c0 109 83 176 234 176s234 -67 234 -176
c0 -68 -40 -119 -93 -146zM385 467c0 48 -34 78 -85 78s-85 -30 -85 -78c0 -51 36 -81 85 -81s85 30 85 81z" />
    <glyph glyph-name="nine" unicode="9" horiz-adv-x="600" 
d="M396 370c0 107 -51 170 -115 170c-56 0 -92 -41 -92 -109c0 -67 35 -100 95 -100c49 0 85 16 112 39zM79 29l39 110c35 -19 79 -30 130 -30c99 0 139 61 146 156c-29 -23 -77 -45 -149 -45c-108 0 -203 65 -203 205s98 239 238 239c162 0 269 -117 269 -333
c0 -223 -117 -344 -276 -344c-75 0 -145 14 -194 42z" />
    <glyph glyph-name="colon" unicode=":" horiz-adv-x="296" 
d="M241 77c0 -47 -33 -90 -93 -90s-93 43 -93 90s33 91 93 91s93 -44 93 -91zM241 397c0 -48 -33 -91 -93 -91s-93 43 -93 91c0 47 33 90 93 90s93 -43 93 -90z" />
    <glyph glyph-name="semicolon" unicode=";" horiz-adv-x="296" 
d="M241 397c0 -48 -33 -91 -93 -91s-93 43 -93 91c0 47 33 90 93 90s93 -43 93 -90zM145 -124h-103l27 277h173z" />
    <glyph glyph-name="less" unicode="&#x3c;" horiz-adv-x="600" 
d="M523 23l-463 250v85l463 251v-147l-296 -146l296 -146v-147z" />
    <glyph glyph-name="equal" unicode="=" horiz-adv-x="600" 
d="M518 319h-436v108h436v-108zM518 131h-436v108h436v-108z" />
    <glyph glyph-name="greater" unicode="&#x3e;" horiz-adv-x="600" 
d="M540 273l-463 -250v147l296 146l-296 146v147l463 -251v-85z" />
    <glyph glyph-name="question" unicode="?" horiz-adv-x="508" 
d="M304 206h-123c-7 11 -16 26 -16 49c0 103 140 145 140 237c0 36 -22 68 -78 68c-60 0 -118 -18 -161 -41l-36 116c48 28 120 52 212 52c148 0 219 -68 219 -175c0 -136 -163 -173 -163 -266c0 -12 2 -27 6 -40zM335 76c0 -48 -34 -91 -94 -91s-93 43 -93 91
c0 47 34 89 93 89c60 0 94 -42 94 -89z" />
    <glyph glyph-name="at" unicode="@" horiz-adv-x="842" 
d="M485 333v98c-16 5 -34 8 -55 8c-61 0 -88 -34 -88 -106c0 -76 31 -105 68 -105c45 0 75 37 75 105zM563 113l38 -71c-48 -32 -100 -54 -196 -54c-194 0 -347 121 -347 337c0 200 137 362 373 362c216 0 352 -133 352 -342c0 -149 -72 -220 -152 -220
c-58 0 -94 43 -105 77c-27 -47 -72 -75 -133 -75c-99 0 -169 72 -169 203c0 106 44 209 211 209c67 0 122 -17 173 -45v-226c0 -28 7 -50 32 -50c29 0 55 48 55 128c0 168 -93 262 -264 262c-189 0 -286 -122 -286 -279c0 -166 113 -263 262 -263c61 0 113 16 156 47z" />
    <glyph glyph-name="A" unicode="A" horiz-adv-x="648" 
d="M645 0h-163l-47 140h-223l-46 -140h-163l239 674h164zM394 266l-29 94l-40 161h-2l-41 -161l-28 -94h140z" />
    <glyph glyph-name="B" unicode="B" horiz-adv-x="632" 
d="M342 0h-278v674h282c157 0 227 -76 227 -181c0 -74 -49 -120 -91 -138c68 -20 116 -68 116 -155c0 -115 -77 -200 -256 -200zM216 128h123c64 0 108 29 108 82c0 49 -40 76 -112 76h-119v-158zM216 408h128c47 0 79 22 79 71c0 43 -30 67 -79 67h-128v-138z" />
    <glyph glyph-name="C" unicode="C" horiz-adv-x="590" 
d="M527 157l37 -119c-52 -31 -126 -51 -207 -51c-200 0 -323 137 -323 350c0 197 117 350 328 350c75 0 135 -13 199 -48l-38 -117c-43 23 -92 34 -146 34c-125 0 -186 -79 -186 -219c0 -141 62 -219 187 -219c47 0 98 10 149 39z" />
    <glyph glyph-name="D" unicode="D" horiz-adv-x="669" 
d="M287 0h-223v674h223c225 0 346 -117 346 -333c0 -224 -121 -341 -346 -341zM221 134h66c117 0 190 59 190 207s-73 199 -190 199h-66v-406z" />
    <glyph glyph-name="E" unicode="E" horiz-adv-x="559" 
d="M522 0h-458v674h452v-132h-298v-133h275v-131h-275v-146h304v-132z" />
    <glyph glyph-name="F" unicode="F" horiz-adv-x="534" 
d="M488 268h-270v-268h-154v674h441v-132h-287v-142h270v-132z" />
    <glyph glyph-name="G" unicode="G" horiz-adv-x="663" 
d="M608 0h-133l-15 75c-24 -47 -70 -85 -151 -85c-160 0 -275 137 -275 342c0 217 132 355 349 355c75 0 140 -13 204 -48l-38 -119c-51 25 -102 36 -151 36c-129 0 -207 -75 -207 -224c0 -132 67 -213 158 -213c56 0 111 34 111 113v42h-123v122h271v-396z" />
    <glyph glyph-name="H" unicode="H" horiz-adv-x="679" 
d="M615 0h-156v276h-238v-276h-157v674h157v-263h238v263h156v-674z" />
    <glyph glyph-name="I" unicode="I" horiz-adv-x="288" 
d="M222 0h-156v674h156v-674z" />
    <glyph glyph-name="J" unicode="J" horiz-adv-x="416" 
d="M197 203v471h157v-471c0 -151 -71 -216 -198 -216c-60 0 -122 20 -153 40l35 121c27 -15 54 -27 94 -27s65 22 65 82z" />
    <glyph glyph-name="K" unicode="K" horiz-adv-x="644" 
d="M648 0h-175l-226 306v97l225 271h170l-261 -316zM221 0h-157v674h157v-674z" />
    <glyph glyph-name="L" unicode="L" horiz-adv-x="525" 
d="M505 0h-441v674l157 1v-541h284v-134z" />
    <glyph glyph-name="M" unicode="M" horiz-adv-x="827" 
d="M763 0h-152v313c0 55 8 139 20 208h-5c-16 -69 -33 -128 -54 -184l-89 -234h-139l-89 234c-21 56 -38 115 -54 184h-5c12 -69 20 -153 20 -208v-313h-152v674h187l112 -279c27 -68 41 -128 49 -184h3c9 56 22 116 49 184l112 279h187v-674z" />
    <glyph glyph-name="N" unicode="N" horiz-adv-x="690" 
d="M626 0h-171l-174 314c-35 61 -65 133 -88 201h-3c16 -83 21 -167 21 -223v-292h-147v674h177l170 -315c35 -64 63 -133 84 -201h3c-13 61 -18 140 -18 181v335h146v-674z" />
    <glyph glyph-name="O" unicode="O" horiz-adv-x="712" 
d="M356 116c107 0 165 74 165 221c0 145 -58 221 -165 221s-165 -76 -165 -221c0 -147 58 -221 165 -221zM356 -13c-213 0 -321 153 -321 350s108 350 321 350s321 -153 321 -350s-108 -350 -321 -350z" />
    <glyph glyph-name="P" unicode="P" horiz-adv-x="592" 
d="M220 0h-156v674h256c151 0 239 -101 239 -222c0 -123 -93 -228 -245 -228h-94v-224zM218 359h96c56 0 89 37 89 93c0 52 -30 87 -83 87h-102v-180z" />
    <glyph glyph-name="Q" unicode="Q" horiz-adv-x="712" 
d="M576 -172h-381v114h25c56 0 81 20 92 47c-184 19 -277 164 -277 348c0 197 108 350 321 350s321 -153 321 -350c0 -164 -74 -297 -220 -337c-16 -25 -42 -49 -66 -58h185v-114zM356 116c107 0 165 74 165 221c0 145 -58 221 -165 221s-165 -76 -165 -221
c0 -147 58 -221 165 -221z" />
    <glyph glyph-name="R" unicode="R" horiz-adv-x="605" 
d="M592 0h-163l-133 247h-75v-247h-157v674h257c166 0 249 -94 249 -214c0 -89 -52 -154 -128 -185zM219 372h105c56 0 90 33 90 86c0 48 -29 82 -92 82h-103v-168z" />
    <glyph glyph-name="S" unicode="S" horiz-adv-x="544" 
d="M29 40l40 127c49 -27 112 -49 175 -49c67 0 116 24 116 75s-64 70 -125 91c-80 27 -201 71 -201 212c0 108 70 191 238 191c85 0 153 -16 213 -45l-40 -121c-52 24 -110 35 -158 35c-65 0 -100 -24 -100 -59c0 -53 61 -72 122 -93c86 -30 203 -77 203 -213
c0 -139 -115 -204 -262 -204c-87 0 -161 18 -221 53z" />
    <glyph glyph-name="T" unicode="T" horiz-adv-x="543" 
d="M350 0h-157v542l-189 -3v135h535v-135l-189 3v-542z" />
    <glyph glyph-name="U" unicode="U" horiz-adv-x="682" 
d="M464 276v398h157v-397c0 -196 -97 -290 -280 -290s-280 94 -280 290v397h157v-398c0 -92 34 -159 123 -159s123 67 123 159z" />
    <glyph glyph-name="V" unicode="V" horiz-adv-x="632" 
d="M403 0h-174l-223 674h164l100 -338l44 -190h4l44 190l100 338h164z" />
    <glyph glyph-name="W" unicode="W" horiz-adv-x="913" 
d="M757 0h-170l-95 344c-14 52 -26 140 -34 200h-3c-8 -60 -21 -148 -35 -200l-95 -344h-170l-145 674h157l53 -282c8 -51 23 -159 28 -269h3c11 109 31 213 44 258l80 293h162l81 -293c11 -45 32 -149 43 -258h3c5 109 17 218 28 269l53 282h158z" />
    <glyph glyph-name="X" unicode="X" horiz-adv-x="653" 
d="M650 0h-171l-151 242h-3l-151 -242h-171l231 348l-216 326h174l133 -218h3l133 218h174l-216 -326z" />
    <glyph glyph-name="Y" unicode="Y" horiz-adv-x="614" 
d="M384 0h-156v280l-225 394h167l136 -264h1h1l136 264h167l-227 -394v-280z" />
    <glyph glyph-name="Z" unicode="Z" horiz-adv-x="562" 
d="M527 0h-495v99l303 451l-277 -3v127h466v-99l-302 -450l305 3v-128z" />
    <glyph glyph-name="bracketleft" unicode="[" horiz-adv-x="310" 
d="M302 -118h-234v802h234v-99h-92v-604h92v-99z" />
    <glyph glyph-name="backslash" unicode="\" horiz-adv-x="404" 
d="M408 -40h-132l-280 714h132z" />
    <glyph glyph-name="bracketright" unicode="]" horiz-adv-x="310" 
d="M242 -118h-234v99h92v604h-92v99h234v-802z" />
    <glyph glyph-name="asciicircum" unicode="^" horiz-adv-x="586" 
d="M560 276h-161l-106 247l-106 -247h-161l205 398h124z" />
    <glyph glyph-name="underscore" unicode="_" horiz-adv-x="456" 
d="M456 -166h-456v113h456v-113z" />
    <glyph glyph-name="grave" unicode="`" horiz-adv-x="344" 
d="M170 532l-221 105l79 115l184 -155z" />
    <glyph glyph-name="a" unicode="a" horiz-adv-x="518" 
d="M310 195v22h-51c-56 0 -89 -25 -89 -72c0 -31 21 -51 50 -51c52 0 90 42 90 101zM458 0h-133l-15 62c-23 -39 -60 -74 -131 -74c-84 0 -149 58 -149 150c0 127 95 166 227 166h53v11c0 48 -24 71 -80 71c-51 0 -97 -15 -140 -40l-32 99c43 28 118 51 197 51
c140 0 203 -69 203 -186v-310z" />
    <glyph glyph-name="b" unicode="b" horiz-adv-x="583" 
d="M215 325v-95c0 -83 39 -123 91 -123s91 36 91 139c0 76 -28 129 -88 129c-40 0 -71 -23 -94 -50zM202 0h-140v674h154v-248c25 30 80 70 149 70c132 0 186 -120 186 -250c0 -163 -80 -259 -189 -259c-77 0 -121 38 -146 74z" />
    <glyph glyph-name="c" unicode="c" horiz-adv-x="469" 
d="M418 136l33 -107c-44 -28 -108 -42 -163 -42c-171 0 -256 111 -256 255c0 140 83 254 250 254c56 0 114 -14 162 -43l-31 -104c-31 17 -64 28 -111 28c-79 0 -117 -47 -117 -135s44 -138 116 -138c42 0 81 11 117 32z" />
    <glyph glyph-name="d" unicode="d" horiz-adv-x="583" 
d="M369 230v95c-21 27 -50 50 -90 50c-60 0 -93 -52 -93 -132c0 -100 40 -136 92 -136c51 0 91 40 91 123zM521 0h-139l-14 61c-27 -35 -69 -74 -136 -74c-120 0 -200 96 -200 256c0 132 60 253 201 253c67 0 108 -35 135 -70v248h153v-674z" />
    <glyph glyph-name="e" unicode="e" horiz-adv-x="520" 
d="M430 128l33 -100c-43 -27 -104 -41 -168 -41c-177 0 -263 97 -263 256c0 137 76 252 241 252c136 0 215 -94 215 -210c0 -32 -7 -67 -15 -92h-292c11 -67 64 -95 125 -95c43 0 85 9 124 30zM178 277h177c0 68 -24 112 -79 112c-57 0 -91 -44 -98 -112z" />
    <glyph glyph-name="f" unicode="f" horiz-adv-x="366" 
d="M228 0h-150v376h-71v107h71v31c0 111 52 173 176 173c56 0 95 -11 126 -30l-31 -91c-15 8 -34 12 -57 12c-47 0 -64 -22 -64 -65v-30h127v-107h-127v-376z" />
    <glyph glyph-name="g" unicode="g" horiz-adv-x="582" 
d="M369 233v92c-21 27 -50 50 -90 50c-60 0 -93 -50 -93 -129c0 -99 40 -133 92 -133c51 0 91 39 91 120zM369 31v37c-27 -35 -71 -75 -137 -75c-120 0 -200 97 -200 253c0 132 60 250 201 250c67 0 108 -35 135 -70l12 57h141v-444c0 -176 -112 -245 -258 -245
c-75 0 -153 22 -198 49l37 112c43 -27 97 -39 146 -39c68 0 121 27 121 115z" />
    <glyph glyph-name="h" unicode="h" horiz-adv-x="591" 
d="M531 0h-153v296c0 52 -18 79 -62 79c-39 0 -77 -23 -100 -50v-325h-154v674h154v-248c29 31 87 70 161 70c95 0 154 -67 154 -194v-302z" />
    <glyph glyph-name="i" unicode="i" horiz-adv-x="278" 
d="M215 0h-152v483h152v-483zM229 609c0 -45 -34 -78 -90 -78s-90 33 -90 78s34 78 90 78s90 -33 90 -78z" />
    <glyph glyph-name="j" unicode="j" horiz-adv-x="284" 
d="M-66 -173l33 109c17 -11 32 -15 59 -15c24 0 41 11 41 54v508h154v-502c0 -121 -51 -186 -152 -186c-60 0 -104 15 -135 32zM234 609c0 -45 -34 -78 -90 -78s-90 33 -90 78s34 78 90 78s90 -33 90 -78z" />
    <glyph glyph-name="k" unicode="k" horiz-adv-x="554" 
d="M557 0h-162l-157 222v84l150 177h167l-187 -218zM215 0h-153v674h153v-674z" />
    <glyph glyph-name="l" unicode="l" horiz-adv-x="280" 
d="M217 0h-154v674h154v-674z" />
    <glyph glyph-name="m" unicode="m" horiz-adv-x="845" 
d="M785 0h-152v303c0 44 -9 71 -46 71s-67 -20 -88 -49v-325h-152v303c0 44 -9 71 -46 71s-67 -20 -88 -49v-325h-152v483h140l12 -57c29 31 77 70 146 70c61 0 104 -30 124 -85c40 43 94 85 162 85c89 0 140 -64 140 -181v-315z" />
    <glyph glyph-name="n" unicode="n" horiz-adv-x="589" 
d="M529 0h-154v296c0 52 -16 79 -60 79c-39 0 -77 -23 -101 -50v-325h-153v483h141l12 -57c29 31 88 70 158 70c99 0 157 -67 157 -194v-302z" />
    <glyph glyph-name="o" unicode="o" horiz-adv-x="564" 
d="M282 101c64 0 95 53 95 141s-31 140 -95 140s-95 -52 -95 -140s31 -141 95 -141zM282 -13c-166 0 -249 116 -249 255c0 140 83 254 249 254s249 -114 249 -254c0 -139 -83 -255 -249 -255z" />
    <glyph glyph-name="p" unicode="p" horiz-adv-x="581" 
d="M213 325v-96c0 -81 40 -123 91 -123c52 0 92 38 92 139c0 77 -29 129 -88 129c-40 0 -72 -22 -95 -49zM214 -191h-153v674h141l12 -57c27 29 78 69 150 69c131 0 185 -120 185 -250c0 -161 -80 -258 -188 -258c-78 0 -121 39 -147 73v-251z" />
    <glyph glyph-name="q" unicode="q" horiz-adv-x="582" 
d="M369 230v95c-21 27 -50 50 -90 50c-60 0 -93 -52 -93 -132c0 -100 40 -136 92 -136c51 0 91 40 91 123zM521 -191h-153v252c-27 -35 -69 -74 -136 -74c-120 0 -200 96 -200 256c0 132 60 253 201 253c67 0 108 -35 135 -70l12 57h141v-674z" />
    <glyph glyph-name="r" unicode="r" horiz-adv-x="401" 
d="M215 0h-154v483h140l14 -66c19 40 51 78 108 78c29 0 56 -12 72 -27l-32 -134c-19 16 -41 21 -66 21c-35 0 -66 -14 -82 -43v-312z" />
    <glyph glyph-name="s" unicode="s" horiz-adv-x="455" 
d="M32 25l34 111c39 -20 91 -36 142 -36c47 0 65 15 65 38c0 31 -36 44 -85 59c-83 24 -149 60 -149 155c0 85 73 144 194 144c61 0 125 -11 176 -38l-33 -105c-40 20 -89 30 -129 30c-39 0 -59 -11 -59 -32s22 -32 66 -47c104 -35 167 -74 167 -167
c0 -85 -64 -150 -205 -150c-68 0 -135 11 -184 38z" />
    <glyph glyph-name="t" unicode="t" horiz-adv-x="384" 
d="M334 128l28 -108c-33 -23 -70 -33 -119 -33c-117 0 -165 54 -165 169v220h-72v107h73l38 138h111v-138h129v-107h-129v-220c0 -32 14 -48 42 -48c22 0 43 7 64 20z" />
    <glyph glyph-name="u" unicode="u" horiz-adv-x="580" 
d="M519 0h-141l-13 57c-25 -35 -75 -70 -139 -70c-105 0 -166 64 -166 185v311h154v-303c0 -51 19 -72 63 -72c35 0 65 23 88 50v325h154v-483z" />
    <glyph glyph-name="v" unicode="v" horiz-adv-x="514" 
d="M343 0h-173l-162 483h155l58 -197l35 -164h2l35 164l58 197h155z" />
    <glyph glyph-name="w" unicode="w" horiz-adv-x="728" 
d="M606 0h-156l-61 207c-8 27 -21 129 -24 158h-2c0 -28 -16 -132 -24 -158l-60 -207h-156l-111 483h143l38 -194c7 -35 13 -101 16 -172h4c8 71 16 125 28 168l58 198h131l57 -198c13 -43 20 -97 29 -168h4c3 71 8 137 15 172l38 194h143z" />
    <glyph glyph-name="x" unicode="x" horiz-adv-x="522" 
d="M513 0h-163l-89 158h-2l-87 -158h-163l166 248l-159 235h159l83 -146h3l82 146h159l-158 -235z" />
    <glyph glyph-name="y" unicode="y" horiz-adv-x="579" 
d="M366 35v32c-27 -33 -76 -67 -140 -67c-105 0 -166 62 -166 185v298h153v-291c0 -48 21 -72 64 -72c35 0 65 21 88 49v314h153v-441c0 -180 -110 -247 -254 -247c-76 0 -148 19 -193 46l37 112c43 -27 93 -37 136 -37c79 0 122 31 122 119z" />
    <glyph glyph-name="z" unicode="z" horiz-adv-x="467" 
d="M433 0h-402v83l216 293h-198v107h377v-83l-214 -293h221v-107z" />
    <glyph glyph-name="braceleft" unicode="{" horiz-adv-x="346" 
d="M328 -118h-37c-124 0 -189 47 -189 142c0 57 30 109 30 151c0 43 -36 54 -92 54v108c56 0 92 11 92 54c0 42 -30 94 -30 151c0 95 65 142 189 142h37v-100h-33c-39 0 -55 -24 -55 -64c0 -45 19 -93 19 -133c0 -53 -30 -88 -78 -103v-2c48 -15 78 -50 78 -103
c0 -40 -19 -88 -19 -133c0 -40 16 -64 55 -64h33v-100z" />
    <glyph glyph-name="bar" unicode="|" horiz-adv-x="291" 
d="M215 -200h-139v974h139v-974z" />
    <glyph glyph-name="braceright" unicode="}" horiz-adv-x="346" 
d="M55 -118h-37v100h33c39 0 55 24 55 64c0 45 -19 93 -19 133c0 53 30 88 78 103v2c-48 15 -78 50 -78 103c0 40 19 88 19 133c0 40 -16 64 -55 64h-33v100h37c124 0 189 -47 189 -142c0 -57 -30 -109 -30 -151c0 -43 36 -54 92 -54v-108c-56 0 -92 -11 -92 -54
c0 -42 30 -94 30 -151c0 -95 -65 -142 -189 -142z" />
    <glyph glyph-name="asciitilde" unicode="~" horiz-adv-x="575" 
d="M471 424l71 -74c-21 -60 -71 -129 -159 -129c-87 0 -125 74 -194 74c-39 0 -59 -27 -86 -74l-71 73c21 61 71 130 159 130s124 -74 194 -74c39 0 59 27 86 74z" />
    <glyph glyph-name="uni0E33.alt1" horiz-adv-x="492" 
d="M-263 735c0 -67 -53 -118 -125 -118s-125 51 -125 118s53 118 125 118s125 -51 125 -118zM-388 697c23 0 36 16 36 39s-13 38 -36 38c-21 0 -36 -15 -36 -38s15 -39 36 -39zM431 0h-155v347c0 71 -31 98 -90 98c-56 0 -103 -27 -139 -60l-45 106c40 37 119 82 216 82
c136 0 213 -79 213 -216v-357z" />
    <glyph glyph-name="quotedbl" unicode="&#x22;" horiz-adv-x="386" 
d="M154 452h-96l-16 236h128zM328 452h-96l-15 236h127z" />
    <glyph glyph-name="exclam" unicode="!" horiz-adv-x="290" 
d="M196 216h-103l-27 289v169h158v-169zM238 75c0 -47 -34 -89 -93 -89c-60 0 -93 42 -93 89s33 90 93 90s93 -43 93 -90z" />
    <glyph glyph-name="uni0E4E.alt1" 
d="M-294 714v-78c-25 -13 -52 -19 -81 -19c-69 0 -129 30 -129 106c0 52 35 101 102 101c15 0 26 0 39 -3c-11 8 -21 24 -21 43c0 25 18 51 73 51h96l21 -84h-82c-11 0 -16 -4 -16 -13c0 -12 16 -19 33 -27l-22 -50c-27 9 -47 12 -70 12c-27 0 -43 -8 -43 -23
c0 -16 17 -27 41 -27c19 0 36 4 59 11z" />
    <glyph glyph-name="exclamdown" unicode="&#xa1;" horiz-adv-x="290" 
d="M224 -192h-158v169l28 289h103l27 -289v-169zM238 407c0 -47 -33 -90 -93 -90s-93 43 -93 90s34 89 93 89c60 0 93 -42 93 -89z" />
    <glyph glyph-name="cent" unicode="&#xa2;" horiz-adv-x="600" 
d="M390 -100h-69v88c-155 11 -238 118 -238 254s83 245 238 253v88h69v-91c43 -7 83 -20 118 -40l-30 -104c-25 13 -55 23 -88 27v-269c33 4 64 15 93 32l32 -108c-33 -21 -80 -33 -125 -40v-90zM321 109v263c-56 -13 -85 -58 -85 -130s32 -118 85 -133z" />
    <glyph glyph-name="sterling" unicode="&#xa3;" horiz-adv-x="600" 
d="M554 0h-502v127h54c40 19 75 68 75 105c0 18 -4 36 -13 55h-95v74h56c-19 35 -35 70 -35 110c0 119 109 191 237 191c84 0 136 -15 192 -44l-38 -122c-37 21 -79 31 -126 31c-60 0 -92 -29 -92 -72c0 -35 10 -63 25 -94h151v-74h-122c5 -13 7 -28 7 -44
c1 -43 -25 -84 -60 -116h286v-127z" />
    <glyph glyph-name="currency" unicode="&#xa4;" horiz-adv-x="588" 
d="M294 215c63 0 107 46 107 113c0 65 -44 112 -107 112s-107 -47 -107 -112c0 -67 44 -113 107 -113zM453 108l-57 58c-31 -21 -65 -32 -103 -32c-37 0 -70 11 -101 32l-57 -58l-60 60l54 59c-19 33 -29 64 -29 101s10 68 29 99l-54 60c20 20 40 41 60 60l57 -58
c31 20 63 32 102 32s71 -12 102 -32l57 58c20 -19 40 -40 60 -60l-54 -60c19 -31 29 -62 29 -99s-10 -68 -29 -101l54 -59z" />
    <glyph glyph-name="yen" unicode="&#xa5;" horiz-adv-x="600" 
d="M380 0h-156v153h-147v75h151v30l-6 18h-145v75h112l-167 299h165l116 -254l110 254h165l-164 -299h112v-75h-145l-5 -18v-30h150v-75h-146v-153z" />
    <glyph glyph-name="brokenbar" unicode="&#xa6;" horiz-adv-x="291" 
d="M215 323h-139v351h139v-351zM215 -175h-139v351h139v-351z" />
    <glyph glyph-name="section" unicode="&#xa7;" horiz-adv-x="600" 
d="M227 369c-3 -3 -9 -15 -9 -23c0 -51 123 -66 163 -85c5 4 8 11 8 22c0 48 -125 65 -162 86zM76 -17l33 102c51 -23 103 -33 150 -33c60 0 108 25 108 51c0 34 -43 48 -86 61c-73 19 -201 58 -201 172c0 43 15 75 45 96c-20 27 -28 60 -28 89c0 98 83 165 220 165
c60 0 123 -17 179 -44l-33 -105c-53 28 -101 34 -140 34c-55 0 -81 -25 -81 -50c0 -78 285 -55 285 -231c0 -41 -17 -74 -46 -95c23 -31 30 -61 30 -92c0 -96 -97 -166 -245 -166c-61 0 -134 18 -190 46z" />
    <glyph glyph-name="dieresis" unicode="&#xa8;" horiz-adv-x="344" 
d="M134 610c0 -37 -28 -72 -77 -72c-51 0 -77 35 -77 72s26 72 77 72c49 0 77 -35 77 -72zM364 610c0 -37 -28 -72 -77 -72c-51 0 -78 35 -78 72s27 72 78 72c49 0 77 -35 77 -72z" />
    <glyph glyph-name="copyright" unicode="&#xa9;" horiz-adv-x="708" 
d="M354 80c141 0 248 114 248 257s-107 257 -248 257s-248 -114 -248 -257s107 -257 248 -257zM463 242l16 -55c-31 -20 -69 -30 -113 -30c-115 0 -176 79 -176 179c0 102 63 179 181 179c43 0 78 -11 105 -28l-18 -53c-28 15 -52 22 -87 22c-69 0 -101 -48 -101 -120
s30 -120 102 -120c28 0 62 7 91 26zM354 23c-181 0 -314 141 -314 314s133 314 314 314c179 0 314 -141 314 -314s-135 -314 -314 -314z" />
    <glyph glyph-name="ordfeminine" unicode="&#xaa;" horiz-adv-x="375" 
d="M234 439v19h-45c-45 0 -68 -20 -68 -49c0 -25 15 -39 42 -39c41 0 71 30 71 69zM336 300h-83l-11 45c-20 -27 -45 -52 -104 -52c-60 0 -118 34 -118 111c0 87 65 121 169 121h44v2c0 35 -19 53 -58 53c-37 0 -78 -10 -114 -29c-8 24 -16 48 -25 72c33 19 88 37 145 37
c104 0 155 -54 155 -139v-221z" />
    <glyph glyph-name="guillemotleft" unicode="&#xab;" horiz-adv-x="538" 
d="M283 61h-144l-125 181l125 180h144l-125 -180zM508 61h-144l-125 181l125 180h144l-125 -180z" />
    <glyph glyph-name="logicalnot" unicode="&#xac;" horiz-adv-x="525" 
d="M475 106h-143v157h-305v114h448v-271z" />
    <glyph glyph-name="registered" unicode="&#xae;" horiz-adv-x="538" 
d="M380 330h-59l-53 94h-32v-94h-54v252h99c68 0 94 -31 94 -78c0 -33 -25 -65 -56 -72zM236 468h43c29 0 43 12 43 36c0 23 -11 33 -42 33h-44v-69zM498 459c0 -125 -94 -225 -229 -225s-229 100 -229 225s94 225 229 225s229 -100 229 -225zM269 279c108 0 175 79 175 180
s-67 180 -175 180s-175 -79 -175 -180s67 -180 175 -180z" />
    <glyph glyph-name="overscore" unicode="&#xaf;" horiz-adv-x="344" 
d="M338 566h-332v95h332v-95z" />
    <glyph glyph-name="degree" unicode="&#xb0;" horiz-adv-x="362" 
d="M181 492c28 0 49 24 49 57c0 32 -21 56 -49 56c-29 0 -50 -24 -50 -56c0 -33 21 -57 50 -57zM328 549c0 -76 -59 -138 -147 -138c-89 0 -147 62 -147 138c0 75 58 137 147 137c88 0 147 -62 147 -137z" />
    <glyph glyph-name="plusminus" unicode="&#xb1;" horiz-adv-x="600" 
d="M527 263h-153v-140h-147v140h-154v119h154v140h147v-140h153v-119zM527 0h-454v83h454v-83z" />
    <glyph glyph-name="twosuperior" unicode="&#xb2;" horiz-adv-x="319" 
d="M301 300h-284v75l83 81c41 41 63 64 63 87c0 15 -12 23 -35 23c-27 0 -53 -6 -80 -19l-28 85c37 19 79 31 135 31c88 0 131 -41 131 -101c0 -57 -42 -103 -82 -138l-32 -28h129v-96z" />
    <glyph glyph-name="threesuperior" unicode="&#xb3;" horiz-adv-x="320" 
d="M148 447h-61v73h54c23 0 34 8 34 25c0 18 -14 27 -42 27c-23 0 -52 -6 -87 -25l-34 81c43 23 86 35 137 35c89 0 141 -40 141 -100c0 -37 -21 -63 -52 -74c39 -11 62 -47 62 -84c0 -68 -58 -112 -137 -112c-68 0 -111 11 -154 34l33 85c33 -19 70 -27 101 -27
c28 0 42 13 42 32s-12 30 -37 30z" />
    <glyph glyph-name="acute" unicode="&#xb4;" horiz-adv-x="344" 
d="M395 637l-222 -105l-41 65l184 155z" />
    <glyph glyph-name="mu" unicode="&#xb5;" horiz-adv-x="581" 
d="M520 0h-141l-13 56c-23 -43 -57 -59 -108 -59c-19 0 -32 1 -43 4v-201h-154v683h154v-269c0 -61 13 -109 69 -109c29 0 59 25 82 52v326h154v-483z" />
    <glyph glyph-name="paragraph" unicode="&#xb6;" horiz-adv-x="465" 
d="M334 -48h-122v342c-97 0 -186 72 -186 188c0 122 95 192 196 192h220v-91h-74c-27 0 -34 -14 -34 -37v-594z" />
    <glyph glyph-name="middot" unicode="&#xb7;" horiz-adv-x="278" 
d="M232 251c0 -48 -33 -91 -93 -91s-93 43 -93 91c0 47 33 90 93 90s93 -43 93 -90z" />
    <glyph glyph-name="cedilla" unicode="&#xb8;" horiz-adv-x="344" 
d="M181 -191h-159l114 149h96z" />
    <glyph glyph-name="onesuperior" unicode="&#xb9;" horiz-adv-x="314" 
d="M297 300h-267v94h76v156l-64 -18v86l103 37h87v-261h65v-94z" />
    <glyph glyph-name="ordmasculine" unicode="&#xba;" horiz-adv-x="404" 
d="M202 375c51 0 71 40 71 103c0 60 -20 101 -71 101s-71 -41 -71 -101c0 -63 20 -103 71 -103zM202 292c-123 0 -178 79 -178 186c0 104 58 184 178 184s178 -80 178 -184c0 -107 -55 -186 -178 -186z" />
    <glyph glyph-name="guillemotright" unicode="&#xbb;" horiz-adv-x="538" 
d="M399 61h-144l125 181l-125 180h144l125 -180zM174 61h-144l125 181l-125 180h144l125 -180z" />
    <glyph glyph-name="onequarter" unicode="&#xbc;" horiz-adv-x="801" 
d="M292 0h-133l364 660h133zM627 144v87l-64 -87h64zM743 0h-117v57h-152v79l164 219h105v-211h47v-87h-47v-57zM295 300h-267v94h76v156l-64 -18v86l103 37h88v-261h64v-94z" />
    <glyph glyph-name="onehalf" unicode="&#xbd;" horiz-adv-x="801" 
d="M292 0h-133l364 660h133zM295 300h-267v94h76v156l-64 -18v86l103 37h88v-261h64v-94zM772 0h-284v75l83 81c41 41 63 64 63 87c0 15 -12 23 -35 23c-27 0 -51 -8 -76 -20l-28 85c37 19 75 32 131 32c88 0 131 -41 131 -101c0 -56 -43 -102 -82 -138l-32 -28h129v-96z
" />
    <glyph glyph-name="threequarters" unicode="&#xbe;" horiz-adv-x="801" 
d="M292 0h-133l364 660h133zM627 144v87l-64 -87h64zM743 0h-117v57h-152v79l164 219h105v-211h47v-87h-47v-57zM158 447h-60v73h53c23 0 35 8 35 25c0 18 -14 27 -42 27c-23 0 -53 -6 -88 -25l-34 81c43 23 87 35 138 35c88 0 141 -40 141 -100c0 -37 -24 -63 -53 -74
c39 -11 62 -47 62 -84c0 -68 -58 -112 -137 -112c-68 0 -110 11 -153 34l32 85c33 -19 70 -27 101 -27c28 0 42 13 42 32s-12 30 -37 30z" />
    <glyph glyph-name="questiondown" unicode="&#xbf;" horiz-adv-x="508" 
d="M442 -38l36 -116c-48 -28 -120 -52 -212 -52c-148 0 -219 68 -219 175c0 136 163 173 163 266c0 13 -2 27 -6 40h123c7 -11 16 -26 16 -49c0 -103 -140 -145 -140 -237c0 -36 22 -68 78 -68c60 0 118 18 161 41zM360 405c0 -47 -34 -89 -93 -89c-60 0 -94 42 -94 89
c0 48 34 91 94 91s93 -43 93 -91z" />
    <glyph glyph-name="Aring" unicode="&#xc5;" horiz-adv-x="648" 
d="M645 0h-163l-47 140h-223l-46 -140h-163l239 674h164zM394 266l-29 94l-40 161h-2l-41 -161l-28 -94h140zM436 835c0 -58 -48 -106 -112 -106c-67 0 -113 47 -113 106s46 106 113 106c64 0 112 -48 112 -106zM324 796c19 0 29 16 29 39s-10 38 -29 38s-30 -15 -30 -38
s11 -39 30 -39z" />
    <glyph glyph-name="AE" unicode="&#xc6;" horiz-adv-x="859" 
d="M822 0h-341l-33 140h-223l-60 -140h-162l301 674h512v-133h-315l36 -132h256v-132h-222l38 -145h213v-132zM418 266l-20 94l-26 161h-2l-55 -161l-37 -94h140z" />
    <glyph glyph-name="Ntilde" unicode="&#xd1;" horiz-adv-x="690" 
d="M626 0h-171l-174 314c-35 61 -65 133 -88 201h-3c16 -83 21 -167 21 -223v-292h-147v674h177l170 -315c35 -64 63 -133 84 -201h3c-13 61 -18 140 -18 181v335h146v-674zM434 877h84c3 -80 -33 -132 -93 -132c-72 0 -95 51 -138 51c-25 0 -34 -22 -31 -45h-84
c-3 79 33 132 94 132c71 0 98 -51 137 -51c25 0 32 20 31 45z" />
    <glyph glyph-name="multiply" unicode="&#xd7;" horiz-adv-x="600" 
d="M418 58l-118 118l-118 -118l-99 98l119 118l-119 119l99 98l118 -118l118 118l98 -98l-118 -119l118 -118z" />
    <glyph glyph-name="Oslash" unicode="&#xd8;" horiz-adv-x="712" 
d="M174 -40h-95l62 101c-72 64 -106 161 -106 276c0 197 108 350 321 350c55 0 105 -10 148 -31l35 58h94l-62 -102c71 -64 106 -162 106 -275c0 -197 -108 -350 -321 -350c-57 0 -106 11 -147 30zM220 192l213 348c-22 12 -48 18 -77 18c-107 0 -165 -76 -165 -221
c0 -60 10 -108 29 -145zM491 481l-212 -348c21 -11 46 -17 77 -17c107 0 165 74 165 221c0 60 -10 108 -30 144z" />
    <glyph glyph-name="Thorn" unicode="&#xde;" horiz-adv-x="592" 
d="M221 0h-157v674h157v-127h99c151 0 240 -97 240 -214c0 -120 -93 -220 -246 -220h-93v-113zM219 248h95c56 0 89 30 89 85c0 51 -28 79 -83 79h-101v-164z" />
    <glyph glyph-name="germandbls" unicode="&#xdf;" horiz-adv-x="625" 
d="M237 19l19 104c27 -15 60 -24 95 -24c57 0 88 41 88 105c0 72 -45 112 -125 112h-43v107h56c63 0 88 24 88 77c0 43 -27 78 -91 78c-71 0 -114 -44 -114 -139v-439h-150v416c0 159 84 271 264 271c136 0 237 -83 237 -182c0 -88 -54 -125 -100 -139
c75 -24 128 -84 128 -180c0 -132 -90 -195 -209 -195c-55 0 -106 5 -143 28z" />
    <glyph glyph-name="ae" unicode="&#xe6;" horiz-adv-x="799" 
d="M703 128l39 -100c-43 -27 -100 -41 -164 -41c-110 0 -159 49 -189 103c-35 -60 -93 -101 -190 -101c-99 0 -169 56 -169 148c0 128 99 166 232 166h58v15c0 44 -29 69 -85 69c-51 0 -102 -17 -145 -41l-31 99c44 27 122 51 194 51c80 0 129 -26 156 -66
c31 36 82 66 151 66c131 0 207 -94 207 -211c0 -32 -7 -67 -15 -92h-286c12 -68 61 -95 122 -95c43 0 76 9 115 30zM319 216h-55c-56 0 -93 -25 -93 -72c0 -31 25 -50 54 -50c52 0 95 42 95 101c0 7 -1 14 -1 21zM465 277h170c7 73 -28 113 -77 113c-57 0 -86 -45 -93 -113z
" />
    <glyph glyph-name="icircumflex" unicode="&#xee;" horiz-adv-x="278" 
d="M215 0h-152v483h152v-483zM322 535h-136l-46 77l-47 -77h-135l137 151h89z" />
    <glyph glyph-name="eth" unicode="&#xf0;" horiz-adv-x="567" 
d="M283 104c64 0 105 64 105 128c0 66 -38 122 -104 122c-60 0 -102 -54 -102 -126c0 -67 36 -124 101 -124zM384 421h2c-13 32 -51 76 -95 115l-96 -46l-29 65l58 28c-29 19 -65 29 -93 36l52 90c55 -19 102 -46 145 -77l126 59l32 -65l-98 -46c99 -92 144 -211 144 -332
c0 -163 -100 -262 -249 -262c-152 0 -250 101 -250 240c0 133 102 245 225 245c61 0 103 -27 126 -50z" />
    <glyph glyph-name="divide" unicode="&#xf7;" horiz-adv-x="600" 
d="M522 229h-444v109h444v-109zM388 99c0 -43 -31 -83 -87 -83s-87 40 -87 83c0 45 31 84 87 84s87 -39 87 -84zM388 468c0 -44 -31 -83 -87 -83s-87 39 -87 83s31 84 87 84s87 -40 87 -84z" />
    <glyph glyph-name="oslash" unicode="&#xf8;" horiz-adv-x="564" 
d="M141 -40h-90l59 88c-51 47 -77 117 -77 194c0 140 83 254 249 254c42 0 80 -7 113 -22l28 41h90l-56 -83c49 -47 74 -114 74 -190c0 -139 -83 -255 -249 -255c-43 0 -78 8 -109 20zM195 175l131 196c-13 7 -27 11 -44 11c-64 0 -95 -52 -95 -140c0 -25 1 -48 8 -67z
M370 302l-128 -192c11 -6 24 -9 40 -9c64 0 95 53 95 141c0 23 -2 43 -7 60z" />
    <glyph glyph-name="thorn" unicode="&#xfe;" horiz-adv-x="584" 
d="M213 325v-96c0 -81 40 -123 91 -123c52 0 92 38 92 139c0 77 -29 129 -88 129c-40 0 -72 -22 -95 -49zM214 -191h-153v865h153v-248c27 29 78 69 150 69c131 0 185 -120 185 -250c0 -161 -80 -258 -188 -258c-78 0 -121 39 -147 73v-251z" />
    <glyph glyph-name="dotlessi" unicode="&#x131;" horiz-adv-x="278" 
d="M215 0h-152v483h152v-483z" />
    <glyph glyph-name="Lslash" unicode="&#x141;" horiz-adv-x="525" 
d="M504 0h-440v258l-57 -25v108l57 24v309c52 0 104 1 156 1v-242l127 55v-108l-127 -55v-191h284v-134z" />
    <glyph glyph-name="lslash" unicode="&#x142;" horiz-adv-x="280" 
d="M219 0h-155v258l-62 -27v108l62 27v308h155v-242l59 26v-108l-59 -26v-324z" />
    <glyph glyph-name="OE" unicode="&#x152;" horiz-adv-x="1015" 
d="M978 0h-455v56c-39 -37 -97 -69 -181 -69c-200 0 -308 153 -308 350s108 350 307 350c85 0 143 -29 182 -69v56h449v-133h-298v-132h276v-132h-276v-145h304v-132zM355 116c108 0 166 74 166 221c0 145 -58 221 -166 221c-107 0 -165 -76 -165 -221
c0 -147 58 -221 165 -221z" />
    <glyph glyph-name="oe" unicode="&#x153;" horiz-adv-x="841" 
d="M751 128l33 -100c-43 -27 -104 -41 -168 -41c-80 0 -146 24 -187 63c-31 -39 -81 -63 -150 -63c-167 0 -247 114 -247 254c0 139 82 255 244 255c71 0 120 -23 152 -62c37 36 94 62 166 62c135 0 215 -94 215 -211c0 -32 -7 -67 -16 -92h-292c12 -68 63 -95 126 -95
c43 0 84 9 124 30zM366 147c-9 28 -13 60 -13 96c0 32 3 63 12 92c-17 31 -43 47 -80 47c-63 0 -99 -53 -99 -141s36 -140 99 -140c37 0 64 15 81 46zM499 277h177c0 76 -29 113 -80 113c-56 0 -90 -45 -97 -113z" />
    <glyph glyph-name="Scaron" unicode="&#x160;" horiz-adv-x="544" 
d="M29 40l40 127c49 -27 112 -49 175 -49c67 0 116 24 116 75s-64 70 -125 91c-80 27 -201 71 -201 212c0 108 70 191 238 191c85 0 153 -16 213 -45l-40 -121c-52 24 -110 35 -158 35c-65 0 -100 -24 -100 -59c0 -53 61 -72 122 -93c86 -30 203 -77 203 -213
c0 -139 -115 -204 -262 -204c-87 0 -161 18 -221 53zM316 731h-89l-137 151h135l47 -77l46 77h136z" />
    <glyph glyph-name="scaron" unicode="&#x161;" horiz-adv-x="455" 
d="M32 25l34 111c39 -20 91 -36 142 -36c47 0 65 15 65 38c0 31 -36 44 -85 59c-83 24 -149 60 -149 155c0 85 73 144 194 144c61 0 125 -11 176 -38l-33 -105c-40 20 -89 30 -129 30c-39 0 -59 -11 -59 -32s22 -32 66 -47c104 -35 167 -74 167 -167
c0 -85 -64 -150 -205 -150c-68 0 -135 11 -184 38zM271 535h-89l-137 151h135l47 -77l46 77h136z" />
    <glyph glyph-name="Zcaron" unicode="&#x17d;" horiz-adv-x="562" 
d="M527 0h-495v99l303 451l-277 -3v127h466v-99l-302 -450l305 3v-128zM325 731h-89l-137 151h135l47 -77l46 77h136z" />
    <glyph glyph-name="zcaron" unicode="&#x17e;" horiz-adv-x="467" 
d="M433 0h-402v83l216 293h-198v107h377v-83l-214 -293h221v-107zM277 535h-89l-137 151h135l47 -77l46 77h136z" />
    <glyph glyph-name="florin" unicode="&#x192;" horiz-adv-x="600" 
d="M480 290h-127l-24 -195c-15 -111 -74 -173 -198 -173c-56 0 -94 13 -123 30l43 92c14 -9 32 -13 55 -13c48 0 68 22 73 65l24 194h-71l7 107h78l16 117c15 112 74 173 198 173c56 0 93 -11 122 -30l-42 -91c-14 8 -32 12 -55 12c-48 0 -66 -22 -73 -65l-16 -116h120z" />
    <glyph glyph-name="circumflex" unicode="&#x2c6;" horiz-adv-x="344" 
d="M354 535h-136l-46 77l-47 -77h-135l137 151h89z" />
    <glyph glyph-name="caron" unicode="&#x2c7;" horiz-adv-x="344" 
d="M216 535h-89l-137 151h135l47 -77l46 77h136z" />
    <glyph glyph-name="breve" unicode="&#x2d8;" horiz-adv-x="344" 
d="M242 714h106c-7 -100 -64 -160 -176 -160c-113 0 -170 60 -175 160h104c8 -33 32 -49 71 -49s62 16 70 49z" />
    <glyph glyph-name="dotaccent" unicode="&#x2d9;" horiz-adv-x="344" 
d="M253 609c0 -40 -28 -77 -81 -77s-81 37 -81 77c0 39 28 76 81 76s81 -37 81 -76z" />
    <glyph glyph-name="ring" unicode="&#x2da;" horiz-adv-x="344" 
d="M284 639c0 -58 -48 -106 -112 -106c-67 0 -113 47 -113 106s46 106 113 106c64 0 112 -48 112 -106zM172 600c19 0 29 16 29 39s-10 38 -29 38s-30 -15 -30 -38s11 -39 30 -39z" />
    <glyph glyph-name="ogonek" unicode="&#x2db;" horiz-adv-x="344" 
d="M329 -166h-159l-56 168h96z" />
    <glyph glyph-name="tilde" unicode="&#x2dc;" horiz-adv-x="344" 
d="M261 681h84c3 -80 -33 -132 -93 -132c-72 0 -95 51 -138 51c-25 0 -34 -22 -31 -45h-84c-3 79 33 132 94 132c71 0 98 -51 137 -51c25 0 32 20 31 45z" />
    <glyph glyph-name="hungarumlaut" unicode="&#x2dd;" horiz-adv-x="344" 
d="M117 546h-87l77 149h139zM304 546h-87l76 149h139z" />
    <glyph glyph-name="C0316RTO.019" unicode="&#xe00;" horiz-adv-x="194" 
 />
    <glyph glyph-name="uni0E01" unicode="&#xe01;" horiz-adv-x="630" 
d="M569 0h-155v343c0 72 -41 104 -105 104c-52 0 -97 -27 -116 -54l70 -53v-30c-32 -15 -47 -38 -47 -81v-229h-155v230c0 43 23 78 54 97l-82 63c29 93 130 183 282 183c164 0 254 -96 254 -228v-345z" />
    <glyph glyph-name="uni0E02" unicode="&#xe02;" horiz-adv-x="578" 
d="M362 200v360h155v-359c0 -131 -69 -214 -236 -214c-166 0 -236 81 -236 206v33c0 89 86 129 86 180v11c0 15 -8 23 -23 23h-56v120h88c109 0 139 -45 139 -121v-18c0 -88 -79 -110 -79 -195v-34c0 -56 28 -81 81 -81c55 0 81 26 81 89z" />
    <glyph glyph-name="uni0E03" unicode="&#xe03;" horiz-adv-x="588" 
d="M372 200v360h155v-359c0 -131 -70 -214 -236 -214c-167 0 -236 79 -236 206v52c0 86 98 142 98 189v9c0 11 -5 16 -16 16c-17 0 -29 -17 -36 -44l-81 43v116l82 -44c17 19 48 39 92 39c68 0 105 -37 105 -108v-15c0 -83 -89 -123 -89 -201v-53c0 -56 26 -81 81 -81
c53 0 81 26 81 89z" />
    <glyph glyph-name="uni0E04" unicode="&#xe04;" horiz-adv-x="649" 
d="M588 0h-155v343c0 60 -37 104 -108 104c-72 0 -110 -44 -110 -104v-102c15 33 45 60 97 60h50v-128h-60c-51 0 -77 -22 -86 -57v-116h-155v344c0 131 101 229 264 229c162 0 263 -98 263 -229v-344z" />
    <glyph glyph-name="uni0E05" unicode="&#xe05;" horiz-adv-x="658" 
d="M597 0h-155v385c0 32 -15 50 -38 54l-75 -48l-76 48c-25 -5 -38 -23 -39 -54v-143c15 32 47 60 99 60h51v-129h-61c-52 0 -78 -21 -87 -56v-117h-155v381c0 99 49 167 160 192l108 -69l108 69c111 -25 160 -93 160 -192v-381z" />
    <glyph glyph-name="uni0E06" unicode="&#xe06;" horiz-adv-x="630" 
d="M206 0h-142v245c0 86 91 142 91 189v9c0 11 -6 16 -17 16c-16 0 -28 -17 -36 -44l-81 43v116l83 -44c16 19 47 39 91 39c68 0 105 -37 105 -108v-12c0 -88 -81 -126 -81 -204v-53c20 -47 64 -80 115 -80c53 0 80 33 80 98v350h155v-358c0 -141 -68 -213 -184 -213
c-83 0 -139 41 -166 76z" />
    <glyph glyph-name="uni0E07" unicode="&#xe07;" horiz-adv-x="585" 
d="M284 0h-121l-169 560h157l127 -435h11c53 0 105 70 105 178c0 104 -34 145 -93 145c-23 0 -40 -3 -60 -11l-23 113c27 13 70 21 113 21c132 0 218 -97 218 -272c0 -183 -110 -299 -265 -299z" />
    <glyph glyph-name="uni0E0A" unicode="&#xe0a;" horiz-adv-x="593" 
d="M534 297v-96c0 -131 -78 -214 -245 -214s-244 79 -244 206v33c0 89 86 129 86 180v11c0 15 -8 23 -23 23h-57v120h89c109 0 139 -45 139 -121v-18c0 -88 -79 -110 -79 -195v-34c0 -56 36 -81 89 -81c56 0 89 26 89 89v103c0 36 -17 51 -44 51h-19l-22 53l118 153h156
l-123 -144c55 -16 90 -64 90 -119z" />
    <glyph glyph-name="uni0E0B" unicode="&#xe0b;" horiz-adv-x="604" 
d="M545 296v-95c0 -132 -77 -214 -245 -214c-169 0 -246 79 -246 206v51c0 88 99 141 99 189v9c0 11 -6 17 -17 17c-16 0 -28 -17 -36 -44c-27 15 -54 28 -81 43v115l83 -44c16 19 48 39 92 39c67 0 104 -36 104 -107v-16c0 -82 -89 -122 -89 -200v-54c0 -56 35 -80 91 -80
c57 0 90 28 90 88v104c0 35 -18 51 -45 51h-19l-22 53l118 153h156l-122 -145c53 -16 89 -63 89 -119z" />
    <glyph glyph-name="uni0E0D" unicode="&#xe0d;" horiz-adv-x="947" 
d="M732 27v45c-27 -35 -82 -78 -159 -78c-108 0 -176 62 -176 201v148c0 72 -37 104 -97 104c-49 0 -89 -27 -108 -55l71 -53v-30c-31 -13 -47 -40 -47 -81v-95c0 -10 5 -15 15 -15h59v-118h-108c-80 0 -121 43 -121 110v119c0 43 22 78 54 97l-82 64c27 92 127 183 273 183
c160 0 247 -96 247 -229v-142c0 -63 23 -85 67 -85c51 0 90 34 110 81v362h155v-525c0 -152 -105 -226 -257 -226c-97 0 -165 22 -218 50c12 36 24 72 37 108c43 -23 102 -41 163 -41c73 0 122 25 122 101z" />
    <glyph glyph-name="uni0E0E" unicode="&#xe0e;" horiz-adv-x="639" 
d="M578 -200h-163c-27 27 -70 49 -118 49c-56 0 -98 -16 -147 -55l-40 116c39 37 90 63 166 63c60 0 115 -27 146 -58v428c0 72 -41 104 -106 104c-53 0 -99 -27 -118 -55l84 -58v-29c-29 -13 -43 -36 -43 -77v-118c0 -67 -42 -110 -121 -110h-95v118h46c9 0 14 5 14 15v96
c0 43 19 75 52 92l-96 69c27 93 132 183 283 183c164 0 256 -96 256 -229v-544z" />
    <glyph glyph-name="uni0E0F" unicode="&#xe0f;" horiz-adv-x="639" 
d="M578 -200h-158l-89 61c-23 -37 -61 -69 -126 -69c-40 0 -83 9 -118 28l38 120c27 -16 56 -26 87 -26c53 0 86 23 100 69l110 -73v433c0 72 -41 104 -106 104c-53 0 -99 -27 -118 -55l84 -58v-29c-29 -13 -43 -36 -43 -77v-118c0 -67 -42 -110 -121 -110h-95v118h46
c9 0 14 5 14 15v96c0 43 19 75 52 92l-96 69c27 93 132 183 283 183c164 0 256 -96 256 -229v-544z" />
    <glyph glyph-name="uni0E10" unicode="&#xe10;" horiz-adv-x="570" 
d="M288 0h-127l-51 191c-4 15 -9 22 -28 22h-36v116h78c61 0 96 -13 112 -78l33 -126h15c48 8 95 70 95 170c0 108 -59 152 -136 152c-61 0 -126 -21 -185 -68l-48 111c56 47 143 83 243 83c34 0 65 -5 93 -16l37 46h171l-93 -113c47 -49 73 -116 73 -196
c0 -158 -113 -294 -246 -294zM490 -200h-153c-43 0 -84 19 -101 51c-15 -32 -57 -51 -96 -51h-81v111h78c40 0 78 11 99 46c23 -33 53 -46 89 -46h35v54h130v-165z" />
    <glyph glyph-name="uni0E11" unicode="&#xe11;" horiz-adv-x="642" 
d="M581 0h-155v375c0 51 -16 73 -55 73c-83 0 -154 -109 -154 -211v-237h-155v225c0 82 50 161 94 198v20c0 11 -5 16 -16 16c-17 0 -28 -17 -36 -44l-81 43v116l82 -44c17 19 48 39 92 39c48 0 77 -23 85 -60c33 36 81 62 144 62c93 0 155 -60 155 -184v-387z" />
    <glyph glyph-name="uni0E13" unicode="&#xe13;" horiz-adv-x="947" 
d="M885 0h-142c-5 21 -9 42 -13 65c-27 -39 -80 -75 -161 -75c-107 0 -172 62 -172 198v155c0 72 -37 104 -97 104c-49 0 -89 -27 -108 -55c24 -17 47 -34 71 -53v-30c-31 -13 -47 -40 -47 -81v-95c0 -10 5 -15 15 -15h59v-118h-108c-80 0 -121 43 -121 110v119
c0 43 22 78 54 97c-27 23 -55 43 -82 64c27 92 127 183 273 183c160 0 247 -96 247 -229v-148c0 -64 23 -85 67 -85c51 0 90 34 110 81v368h155v-560z" />
    <glyph glyph-name="uni0E16" unicode="&#xe16;" horiz-adv-x="630" 
d="M569 0h-155v343c0 72 -41 104 -105 104c-53 0 -98 -27 -117 -55l71 -53v-30c-31 -13 -47 -40 -47 -81v-95c0 -10 5 -15 15 -15h59v-118h-108c-80 0 -121 43 -121 110v119c0 43 22 78 54 97l-82 64c27 92 132 183 282 183c163 0 254 -96 254 -229v-344z" />
    <glyph glyph-name="uni0E17" unicode="&#xe17;" horiz-adv-x="642" 
d="M581 0h-155v355c0 64 -23 91 -70 91c-56 0 -107 -30 -139 -74v-372h-155v560h142l13 -65c40 37 100 76 185 76c108 0 179 -72 179 -209v-362z" />
    <glyph glyph-name="uni0E18" unicode="&#xe18;" horiz-adv-x="581" 
d="M538 208v-30c0 -127 -83 -191 -250 -191c-173 0 -248 58 -248 193v54h148v-58c0 -52 35 -72 100 -72c71 0 102 22 102 71v33c0 23 -12 36 -36 39l-155 22c-104 15 -162 54 -162 138c0 99 93 166 246 166c97 0 177 -26 236 -57l-32 -110c-60 33 -132 51 -203 51
c-65 0 -98 -14 -98 -43c0 -19 13 -32 48 -37l155 -21c91 -13 149 -53 149 -148z" />
    <glyph glyph-name="uni0E19" unicode="&#xe19;" horiz-adv-x="632" 
d="M569 0h-142l-13 65c-27 -36 -81 -76 -162 -76c-117 0 -191 66 -191 203v368h155v-361c0 -61 32 -87 81 -87c52 0 96 31 117 78v370h155v-560z" />
    <glyph glyph-name="uni0E1A" unicode="&#xe1a;" horiz-adv-x="633" 
d="M417 218v342h155v-342c0 -157 -99 -231 -256 -231c-158 0 -255 74 -255 231v342h155v-342c0 -68 36 -105 100 -105s101 37 101 105z" />
    <glyph glyph-name="uni0E1B" unicode="&#xe1b;" horiz-adv-x="633" 
d="M417 218v532h155v-532c0 -157 -99 -231 -256 -231c-158 0 -255 74 -255 231v342h155v-342c0 -68 36 -105 100 -105s101 37 101 105z" />
    <glyph glyph-name="uni0E1C" unicode="&#xe1c;" horiz-adv-x="687" 
d="M625 0h-183l-59 157l-36 121h-3l-38 -121l-61 -157h-183v449c0 67 41 111 121 111h100v-119h-59c-10 0 -15 -5 -15 -15v-176l-8 -130h3l40 117l59 138h85l57 -138l38 -117h3l-8 130v310h147v-560z" />
    <glyph glyph-name="uni0E1D" unicode="&#xe1d;" horiz-adv-x="687" 
d="M625 0h-183l-59 157l-36 121h-3l-38 -121l-61 -157h-183v449c0 67 41 111 121 111h100v-119h-59c-10 0 -15 -5 -15 -15v-176l-8 -130h3l40 117l59 138h85l57 -138l38 -117h3l-8 130v500h147v-750z" />
    <glyph glyph-name="uni0E1E" unicode="&#xe1e;" horiz-adv-x="766" 
d="M653 0h-184l-59 241c-13 51 -18 119 -25 187h-4c-7 -68 -12 -136 -25 -187l-59 -241h-184l-87 560h148l33 -257c7 -47 11 -114 16 -201h3c8 87 16 150 29 201l55 229h146l55 -229c13 -51 21 -114 29 -201h3c5 87 9 154 16 201l33 257h148z" />
    <glyph glyph-name="uni0E1F" unicode="&#xe1f;" horiz-adv-x="780" 
d="M657 0h-184l-59 241c-13 51 -18 119 -25 187h-4c-7 -68 -12 -136 -25 -187l-59 -241h-184l-91 560h148l37 -257c7 -47 11 -114 16 -201h3c8 87 16 150 29 201l55 229h146l55 -229c13 -51 21 -114 29 -201h3c5 87 9 154 16 201l43 447h146z" />
    <glyph glyph-name="uni0E20" unicode="&#xe20;" horiz-adv-x="639" 
d="M578 0h-156v343c0 72 -41 104 -106 104c-53 0 -99 -27 -118 -55l84 -58v-29c-29 -13 -43 -36 -43 -77v-118c0 -67 -42 -110 -121 -110h-95v118h46c9 0 14 5 14 15v96c0 43 19 75 52 92l-96 69c27 93 132 183 283 183c164 0 256 -96 256 -229v-344z" />
    <glyph glyph-name="uni0E21" unicode="&#xe21;" horiz-adv-x="632" 
d="M416 210v350h155v-358c0 -141 -70 -213 -186 -213c-83 0 -141 41 -168 76l-13 -65h-142v560h155v-368c19 -47 65 -80 117 -80c55 0 82 33 82 98z" />
    <glyph glyph-name="uni0E22" unicode="&#xe22;" horiz-adv-x="616" 
d="M400 224v336h155v-338c0 -136 -77 -235 -275 -235c-139 0 -242 63 -242 190c0 64 41 109 90 120c-43 11 -90 66 -90 128c0 84 60 145 169 145c45 0 83 -8 114 -23l-15 -114c-24 11 -43 12 -58 12c-40 0 -60 -14 -60 -43c0 -31 27 -50 59 -50h69l12 -110h-68
c-45 0 -69 -24 -69 -60c0 -44 38 -71 90 -71c83 0 119 46 119 113z" />
    <glyph glyph-name="uni0E23" unicode="&#xe23;" horiz-adv-x="525" 
d="M37 43l41 115c47 -27 103 -49 163 -49s96 22 96 50c0 42 -59 54 -111 70c-109 34 -192 68 -192 179c0 83 74 165 223 165c92 0 164 -32 215 -65l-44 -106c-43 28 -93 49 -168 49c-44 0 -75 -11 -75 -38c0 -31 47 -43 115 -67c118 -40 187 -80 187 -183
c0 -96 -80 -176 -233 -176c-84 0 -166 21 -217 56z" />
    <glyph glyph-name="uni0E24" unicode="&#xe24;" horiz-adv-x="630" 
d="M569 -200h-155v543c0 72 -41 104 -105 104c-53 0 -98 -27 -117 -55l71 -53v-30c-31 -13 -47 -40 -47 -81v-95c0 -10 5 -15 15 -15h59v-118h-108c-80 0 -121 43 -121 110v119c0 43 22 78 54 97l-82 64c27 92 132 183 282 183c163 0 254 -96 254 -229v-544z" />
    <glyph glyph-name="uni0E25" unicode="&#xe25;" horiz-adv-x="607" 
d="M546 0h-152v234h-116c-53 0 -96 -17 -96 -64c0 -39 26 -59 66 -59c23 0 44 2 67 13l25 -110c-32 -15 -70 -22 -115 -22c-113 0 -195 54 -195 174c0 123 84 179 261 179h103v16c0 51 -34 90 -111 90c-75 0 -138 -24 -189 -61l-49 108c56 40 147 75 251 75
c156 0 250 -85 250 -212v-361z" />
    <glyph glyph-name="uni0E26" unicode="&#xe26;" horiz-adv-x="639" 
d="M578 -200h-156v543c0 72 -41 104 -106 104c-53 0 -99 -27 -118 -55l84 -58v-29c-29 -13 -43 -36 -43 -77v-118c0 -67 -42 -110 -121 -110h-95v118h46c9 0 14 5 14 15v96c0 43 19 75 52 92l-96 69c27 93 132 183 283 183c164 0 256 -96 256 -229v-544z" />
    <glyph glyph-name="uni0E27" unicode="&#xe27;" horiz-adv-x="536" 
d="M23 38l36 118c43 -24 97 -43 149 -43c92 0 136 59 136 166c0 119 -55 168 -136 168c-51 0 -100 -15 -152 -51l-35 116c55 36 130 61 213 61c165 0 266 -104 266 -285c0 -203 -103 -301 -273 -301c-83 0 -157 16 -204 51z" />
    <glyph glyph-name="uni0E29" unicode="&#xe29;" horiz-adv-x="664" 
d="M635 265h-61v-47c0 -157 -100 -231 -257 -231s-256 74 -256 231v342h155v-342c0 -68 37 -105 101 -105s101 37 101 105v47h-107v117h107v178h156v-178h86z" />
    <glyph glyph-name="uni0E2A" unicode="&#xe2a;" horiz-adv-x="607" 
d="M546 0h-152v234h-116c-53 0 -96 -17 -96 -64c0 -39 26 -59 66 -59c23 0 44 2 67 13l25 -110c-32 -15 -70 -22 -115 -22c-113 0 -195 54 -195 174c0 123 84 179 261 179h103v17c0 47 -34 89 -111 89c-75 0 -137 -24 -188 -60l-49 108c55 39 147 74 251 74
c28 0 58 -5 81 -14l33 44h171l-90 -109c39 -35 54 -84 54 -133v-361z" />
    <glyph glyph-name="uni0E2C" unicode="&#xe2c;" horiz-adv-x="687" 
d="M625 0h-183l-61 157l-38 121h-3l-36 -121l-59 -157h-183v560h147v-310l-8 -130h3l38 117l57 138h85l59 -138l40 -117h3l-8 130v180c0 39 -14 65 -55 65h-10l-24 62l140 193h153l-147 -186c60 -15 90 -63 90 -139v-425z" />
    <glyph glyph-name="uni0E2D" unicode="&#xe2d;" horiz-adv-x="617" 
d="M281 213h-80c-10 0 -15 -5 -15 -16v-4c0 -56 37 -80 102 -80c83 0 137 52 137 173c0 105 -58 161 -150 161c-79 0 -143 -29 -195 -68l-48 114c57 41 142 80 258 80c172 0 290 -102 290 -289c0 -201 -109 -297 -281 -297c-175 0 -263 83 -263 212v13c0 78 37 117 112 117
h133v-116z" />
    <glyph glyph-name="uni0E2E" unicode="&#xe2e;" horiz-adv-x="617" 
d="M281 213h-80c-10 0 -15 -5 -15 -16v-4c0 -56 37 -80 102 -80c83 0 137 52 137 173c0 103 -58 161 -150 161c-79 0 -143 -29 -195 -68l-48 114c57 41 141 80 256 80c28 0 59 -5 84 -13l34 43h172l-86 -103c57 -48 88 -124 88 -216c0 -201 -109 -297 -281 -297
c-175 0 -263 83 -263 212v13c0 78 37 117 112 117h133v-116z" />
    <glyph glyph-name="uni0E2F" unicode="&#xe2f;" horiz-adv-x="569" 
d="M507 0h-156v369c-27 -47 -76 -77 -152 -77c-115 0 -173 78 -173 203v65h154v-64c0 -57 21 -86 62 -86c56 0 111 41 111 116v34h154v-560z" />
    <glyph glyph-name="uni0E30" unicode="&#xe30;" horiz-adv-x="337" 
d="M297 316h-139c-67 0 -123 32 -123 128v52h144v-43c0 -13 6 -20 17 -20h101v-117zM297 54h-139c-67 0 -123 32 -123 128v51h144v-43c0 -13 6 -19 17 -19h101v-117z" />
    <glyph glyph-name="uni0E31" unicode="&#xe31;" 
d="M58 629h-295c-83 0 -131 38 -131 130v56h143v-46c0 -15 8 -23 25 -23h258v-117z" />
    <glyph glyph-name="uni0E32" unicode="&#xe32;" horiz-adv-x="492" 
d="M431 0h-155v347c0 71 -31 98 -90 98c-56 0 -103 -27 -139 -60l-45 106c40 37 119 82 216 82c136 0 213 -79 213 -216v-357z" />
    <glyph glyph-name="uni0E33" unicode="&#xe33;" horiz-adv-x="492" 
d="M-12 735c0 -67 -53 -118 -125 -118s-125 51 -125 118s53 118 125 118s125 -51 125 -118zM-137 697c23 0 36 16 36 39s-13 38 -36 38c-21 0 -36 -15 -36 -38s15 -39 36 -39zM431 0h-155v347c0 71 -31 98 -90 98c-56 0 -103 -27 -139 -60l-45 106c40 37 119 82 216 82
c136 0 213 -79 213 -216v-357z" />
    <glyph glyph-name="uni0E34" unicode="&#xe34;" 
d="M-61 629h-473v117h473v-117z" />
    <glyph glyph-name="uni0E35" unicode="&#xe35;" 
d="M-61 629h-473v117h332v95h141v-212z" />
    <glyph glyph-name="uni0E36" unicode="&#xe36;" 
d="M-156 629h-378v117h262c1 63 49 105 116 105c69 0 118 -48 118 -112c0 -63 -49 -110 -118 -110zM-156 701c23 0 36 16 36 39s-13 39 -36 39c-21 0 -36 -16 -36 -39s15 -39 36 -39z" />
    <glyph glyph-name="uni0E37" unicode="&#xe37;" 
d="M-61 629h-473v117h195v95h114v-102h50v102h114v-212z" />
    <glyph glyph-name="uni0E38" unicode="&#xe38;" 
d="M-61 -291h-141v95c0 15 -7 23 -22 23h-42v111h100c72 0 105 -28 105 -100v-129z" />
    <glyph glyph-name="uni0E39" unicode="&#xe39;" 
d="M-61 -62v-124c0 -72 -57 -113 -161 -113s-160 41 -160 113v19h-63v105h190v-108c0 -25 13 -36 33 -36c21 0 32 12 32 36v108h129z" />
    <glyph glyph-name="uni0E3A" unicode="&#xe3a;" 
d="M-45 -143c0 -51 -41 -90 -94 -90s-94 39 -94 90c0 52 41 92 94 92s94 -40 94 -92z" />
    <glyph glyph-name="uni0E3F" unicode="&#xe3f;" horiz-adv-x="600" 
d="M334 -100h-69v100h-201v652h201v98h69v-99c141 -5 203 -76 203 -176c0 -71 -48 -112 -89 -131c68 -19 114 -66 114 -150c0 -105 -71 -188 -228 -193v-101zM334 274v-148c51 4 80 34 80 77c0 39 -27 66 -80 71zM265 124v153h-53v-153h53zM265 395v133h-53v-133h53z
M334 525v-128c35 4 57 27 57 66c0 33 -21 59 -57 62z" />
    <glyph glyph-name="uni0E40" unicode="&#xe40;" horiz-adv-x="281" 
d="M218 0h-155v560h155v-560z" />
    <glyph glyph-name="uni0E41" unicode="&#xe41;" horiz-adv-x="528" 
d="M217 0h-154v560h154v-560zM465 0h-154v560h154v-560z" />
    <glyph glyph-name="uni0E42" unicode="&#xe42;" horiz-adv-x="320" 
d="M255 0h-156v591c0 105 -56 154 -118 176l-3 49c49 68 148 123 270 123c91 0 160 -26 203 -50l-31 -116c-49 29 -107 43 -163 43c-59 0 -103 -17 -123 -34c72 -35 121 -103 121 -199v-583z" />
    <glyph glyph-name="uni0E43" unicode="&#xe43;" horiz-adv-x="317" 
d="M255 0h-156v506c0 112 118 180 118 252c0 33 -18 54 -61 54c-56 0 -94 -33 -127 -74l-58 99c44 60 115 102 214 102c119 0 187 -79 187 -165c0 -130 -117 -174 -117 -275v-499z" />
    <glyph glyph-name="uni0E44" unicode="&#xe44;" horiz-adv-x="317" 
d="M255 0h-156v606c0 96 37 157 98 192h-204v123h366v-111c-71 -31 -104 -101 -104 -193v-617z" />
    <glyph glyph-name="uni0E45" unicode="&#xe45;" horiz-adv-x="492" 
d="M431 -200h-155v547c0 71 -31 98 -90 98c-56 0 -103 -27 -139 -60l-45 106c40 37 119 82 216 82c136 0 213 -79 213 -216v-557z" />
    <glyph glyph-name="uni0E46" unicode="&#xe46;" horiz-adv-x="599" 
d="M539 -200h-155v617c0 28 -9 44 -28 48l-76 -55l-84 55c-19 -5 -28 -27 -28 -52c0 -32 21 -53 45 -53c8 0 20 1 41 10l20 -100c-25 -15 -54 -22 -87 -22c-76 0 -149 53 -149 165c0 101 79 157 155 160l89 -61l87 61c104 -5 170 -67 170 -163v-610z" />
    <glyph glyph-name="uni0E47" unicode="&#xe47;" 
d="M-88 629h-80c-36 0 -66 21 -82 52c-15 -32 -50 -57 -102 -57c-76 0 -139 47 -139 133c0 76 55 139 162 139h240v-102h-238c-36 0 -51 -16 -51 -37c0 -23 16 -39 39 -39c27 0 45 17 49 44h76c5 -21 20 -32 45 -32h81v-101z" />
    <glyph glyph-name="uni0E48" unicode="&#xe48;" 
d="M-64 893h-135l-3 177h141z" />
    <glyph glyph-name="uni0E49" unicode="&#xe49;" 
d="M32 893h-211c-36 0 -56 21 -56 54v23c0 11 -6 17 -17 17h-60v112h110c48 0 76 -14 76 -58v-19c0 -11 6 -17 17 -17h141v-112z" />
    <glyph glyph-name="uni0E4A" unicode="&#xe4a;" 
d="M-79 893h-71l-7 19c4 7 7 14 7 29c0 16 -9 31 -25 35l-42 -30l-44 27c-9 -4 -16 -19 -16 -35c0 -23 6 -32 13 -47h-104c-13 21 -21 49 -21 77c0 44 35 95 104 100l64 -48l54 49c64 -4 98 -49 98 -100c0 -7 0 -14 -1 -22c16 23 23 59 23 87c0 21 -6 44 -17 68h114
c9 -20 13 -37 13 -66c0 -73 -57 -143 -142 -143z" />
    <glyph glyph-name="uni0E4B" unicode="&#xe4b;" 
d="M20 967l-92 3l4 -77h-127l4 77l-93 -3v93l93 -3l-4 77h127l-4 -77l92 3v-93z" />
    <glyph glyph-name="uni0E4C" unicode="&#xe4c;" 
d="M-24 858h-82c-16 0 -27 -10 -27 -26v-37h-138v60c0 72 44 117 132 117h115v-114z" />
    <glyph glyph-name="uni0E4E" unicode="&#xe4e;" 
d="M-142 714v-78c-25 -13 -52 -19 -81 -19c-69 0 -129 30 -129 106c0 52 35 101 102 101c15 0 26 0 39 -3c-11 8 -21 24 -21 43c0 25 18 51 73 51h96l21 -84h-82c-11 0 -16 -4 -16 -13c0 -12 16 -19 33 -27l-22 -50c-27 9 -47 12 -70 12c-27 0 -43 -8 -43 -23
c0 -16 17 -27 41 -27c19 0 36 4 59 11z" />
    <glyph glyph-name="uni0E4F" unicode="&#xe4f;" horiz-adv-x="546" 
d="M273 26c-118 0 -213 97 -213 214c0 118 95 213 213 213s213 -95 213 -213c0 -117 -95 -214 -213 -214zM273 71c94 0 169 75 169 169c0 92 -75 169 -169 169c-92 0 -169 -77 -169 -169c0 -94 77 -169 169 -169zM273 117c-69 0 -124 54 -124 122c0 70 56 124 123 124
c69 0 124 -55 124 -123c0 -69 -56 -123 -123 -123zM273 193c24 0 45 20 45 47c0 24 -21 45 -46 45c-24 0 -46 -21 -46 -46c0 -24 20 -46 47 -46z" />
    <glyph glyph-name="uni0E50" unicode="&#xe50;" horiz-adv-x="652" 
d="M326 101c80 0 137 54 137 141c0 85 -57 139 -137 139s-137 -54 -137 -139c0 -87 57 -141 137 -141zM616 242c0 -164 -132 -255 -289 -255c-160 0 -291 91 -291 255c0 163 131 254 291 254c157 0 289 -91 289 -254z" />
    <glyph glyph-name="uni0E51" unicode="&#xe51;" horiz-adv-x="669" 
d="M270 -119h-32l14 117h28c104 0 200 62 200 205c0 125 -75 178 -160 178c-84 0 -136 -47 -136 -116c0 -65 37 -103 89 -103c27 0 57 5 88 18l12 -103c-31 -17 -71 -29 -115 -29c-120 0 -224 68 -224 216c0 144 123 232 290 232c182 0 309 -106 309 -291
c0 -211 -155 -324 -363 -324z" />
    <glyph glyph-name="uni0E52" unicode="&#xe52;" horiz-adv-x="769" 
d="M502 0h-223c-147 0 -221 88 -221 208v352h153v-352c0 -56 27 -93 78 -93h191c53 0 80 31 80 93v105c0 33 -8 55 -31 64l-59 -44l-58 44c-17 -7 -31 -24 -31 -48c0 -31 27 -58 60 -70l-34 -79c-91 16 -156 63 -156 167c0 59 39 134 131 150l88 -71l86 71
c108 -15 158 -74 158 -191v-98c0 -120 -69 -208 -212 -208z" />
    <glyph glyph-name="uni0E53" unicode="&#xe53;" horiz-adv-x="701" 
d="M646 0h-153v329c0 28 -9 55 -37 55c-29 0 -43 -24 -43 -63v-143h-122v143c0 39 -11 63 -38 63c-40 0 -60 -60 -60 -137c0 -89 24 -145 76 -145c15 0 27 3 47 12l26 -95c-29 -19 -61 -28 -97 -28c-141 0 -205 102 -205 256c0 153 86 249 195 249c55 0 96 -23 119 -70
c25 44 64 70 132 70c96 0 160 -64 160 -168v-328z" />
    <glyph glyph-name="uni0E54" unicode="&#xe54;" horiz-adv-x="629" 
d="M573 0h-81c-57 0 -84 9 -109 33c-19 -23 -54 -46 -126 -46c-125 0 -221 92 -221 247c0 168 115 249 279 249h101c40 0 48 14 48 38v39h147v-41c0 -108 -63 -151 -180 -151h-116c-80 0 -125 -41 -125 -133c0 -80 42 -133 97 -133c25 0 41 5 52 13c-15 21 -25 53 -25 76
c0 79 54 112 129 112h104l-21 -97h-42c-21 0 -38 -14 -38 -39c0 -29 22 -53 73 -53h79z" />
    <glyph glyph-name="uni0E55" unicode="&#xe55;" horiz-adv-x="631" 
d="M576 0h-68c-71 0 -98 8 -122 32c-19 -23 -56 -45 -128 -45c-125 0 -222 90 -222 246c0 112 50 185 131 221c-3 11 -4 21 -4 33c0 65 52 116 122 116c76 0 122 -41 121 -101c0 -7 -1 -12 -2 -19h14c40 0 48 14 48 37v40h147v-41c0 -108 -62 -152 -179 -152h-104
c-89 0 -141 -32 -141 -133c0 -80 44 -133 100 -133c24 0 42 6 53 14c-15 20 -25 52 -25 75c0 90 64 113 157 113h76l-21 -97h-42c-21 0 -38 -15 -38 -39c0 -33 26 -53 86 -53h66zM285 451c21 0 34 16 34 37c0 20 -13 36 -34 36c-19 0 -33 -16 -33 -36c0 -21 14 -37 33 -37z
" />
    <glyph glyph-name="uni0E56" unicode="&#xe56;" horiz-adv-x="625" 
d="M193 332h-115l-79 234h151l32 -133c33 35 86 64 163 64c129 0 244 -93 244 -247c0 -136 -85 -263 -286 -263c-157 0 -248 71 -248 178c0 60 30 99 65 128l104 -75c-15 -17 -21 -33 -21 -53c0 -35 32 -63 101 -63c81 0 132 63 132 151c0 76 -45 129 -128 129
c-49 0 -88 -17 -115 -50z" />
    <glyph glyph-name="uni0E57" unicode="&#xe57;" horiz-adv-x="855" 
d="M594 0h-163v333c0 29 -10 51 -34 51s-32 -22 -32 -58v-37h-90v37c0 39 -5 58 -30 58c-40 0 -52 -60 -52 -137c0 -89 24 -145 76 -145c15 0 27 3 47 12l26 -95c-29 -19 -61 -28 -97 -28c-141 0 -205 102 -205 256c0 153 75 249 181 249c49 0 82 -25 101 -65
c23 43 57 65 117 65c88 0 136 -64 136 -168v-227h16c37 0 56 23 56 69v390h150v-383c0 -109 -67 -177 -203 -177z" />
    <glyph glyph-name="uni0E58" unicode="&#xe58;" horiz-adv-x="668" 
d="M463 -7l-112 77l-98 -76c-128 1 -199 65 -199 177v110c0 119 95 202 238 202h121c40 0 48 14 48 38v39h147v-41c0 -108 -63 -151 -180 -151h-129c-60 0 -90 -37 -90 -93v-87c0 -49 19 -65 42 -69l99 71l108 -70c19 9 33 28 33 51c0 31 -25 49 -53 53l44 106
c93 -16 152 -70 152 -162s-85 -172 -171 -175z" />
    <glyph glyph-name="uni0E59" unicode="&#xe59;" horiz-adv-x="659" 
d="M558 0h-141l-116 332c-12 35 -23 51 -48 51c-40 0 -60 -57 -60 -134c0 -96 24 -147 71 -147c19 0 33 3 57 15l27 -99c-33 -20 -67 -28 -107 -28c-131 0 -201 102 -201 259c0 152 86 247 205 247c61 0 104 -21 131 -62c0 35 23 62 67 62c36 0 61 -17 74 -50l15 114h129
l-46 -222h-105c-8 33 -24 44 -47 44c-16 0 -25 -8 -27 -25c1 -12 6 -26 11 -41z" />
    <glyph glyph-name="endash" unicode="&#x2013;" horiz-adv-x="544" 
d="M528 189h-512v111h512v-111z" />
    <glyph glyph-name="emdash" unicode="&#x2014;" horiz-adv-x="974" 
d="M932 189h-890v111h890v-111z" />
    <glyph glyph-name="quoteleft" unicode="&#x2018;" horiz-adv-x="237" 
d="M131 691l47 -19c-21 -25 -38 -61 -38 -80c0 -8 3 -15 15 -15c31 0 50 -29 50 -64c0 -44 -26 -72 -73 -72c-53 0 -82 29 -82 80c0 58 43 130 81 170z" />
    <glyph glyph-name="quoteright" unicode="&#x2019;" horiz-adv-x="237" 
d="M106 439l-47 19c21 25 38 61 38 80c0 8 -3 14 -15 14c-25 0 -50 30 -50 65c0 43 26 71 73 71c53 0 82 -29 82 -80c0 -56 -44 -129 -81 -169z" />
    <glyph glyph-name="quotesinglbase" unicode="&#x201a;" horiz-adv-x="236" 
d="M105 -109l-47 19c21 25 38 61 38 80c0 8 -2 15 -15 15c-31 0 -49 29 -49 64c0 44 26 72 73 72c52 0 81 -29 81 -80c0 -58 -43 -130 -81 -170z" />
    <glyph glyph-name="quotedblleft" unicode="&#x201c;" horiz-adv-x="424" 
d="M131 691l47 -19c-21 -25 -38 -61 -38 -80c0 -8 3 -15 15 -15c31 0 50 -29 50 -64c0 -44 -26 -72 -73 -72c-53 0 -82 29 -82 80c0 58 43 130 81 170zM319 691l47 -19c-21 -25 -38 -61 -38 -80c0 -8 2 -15 15 -15c31 0 49 -29 49 -64c0 -44 -25 -72 -72 -72
c-53 0 -82 29 -82 80c0 58 43 130 81 170z" />
    <glyph glyph-name="quotedblright" unicode="&#x201d;" horiz-adv-x="424" 
d="M293 440l-47 19c21 25 38 60 38 79c0 8 -2 15 -15 15c-31 0 -49 29 -49 65c0 44 25 71 72 71c53 0 82 -29 82 -80c0 -56 -44 -129 -81 -169zM105 440l-47 19c21 25 38 60 38 79c0 8 -2 15 -15 15c-31 0 -49 29 -49 65c0 44 26 71 73 71c52 0 81 -29 81 -80
c0 -56 -44 -129 -81 -169z" />
    <glyph glyph-name="quotedblbase" unicode="&#x201e;" horiz-adv-x="424" 
d="M293 -109l-47 19c21 25 38 61 38 80c0 8 -2 15 -15 15c-31 0 -49 29 -49 64c0 44 25 72 72 72c53 0 82 -29 82 -80c0 -58 -43 -130 -81 -170zM105 -109l-47 19c21 25 38 61 38 80c0 8 -2 15 -15 15c-31 0 -49 29 -49 64c0 44 26 72 73 72c52 0 81 -29 81 -80
c0 -58 -43 -130 -81 -170z" />
    <glyph glyph-name="dagger" unicode="&#x2020;" horiz-adv-x="553" 
d="M353 0h-153v379h-162v108h162v187h153v-187h162v-108h-162v-379z" />
    <glyph glyph-name="daggerdbl" unicode="&#x2021;" horiz-adv-x="552" 
d="M352 -50h-153v187h-162v108h162v134h-162v108h162v187h153v-187h162v-108h-162v-134h162v-108h-162v-187z" />
    <glyph glyph-name="bullet" unicode="&#x2022;" horiz-adv-x="336" 
d="M300 324c0 -67 -43 -124 -132 -124c-90 0 -132 57 -132 124c0 69 43 126 132 126c87 0 132 -57 132 -126z" />
    <glyph glyph-name="ellipsis" unicode="&#x2026;" horiz-adv-x="834" 
d="M232 77c0 -47 -33 -90 -93 -90s-93 43 -93 90s33 91 93 91s93 -44 93 -91zM510 77c0 -47 -33 -90 -93 -90s-93 43 -93 90s33 91 93 91s93 -44 93 -91zM788 77c0 -47 -33 -90 -93 -90s-93 43 -93 90s33 91 93 91s93 -44 93 -91z" />
    <glyph glyph-name="perthousand" unicode="&#x2030;" horiz-adv-x="1165" 
d="M292 0h-134l356 660h133zM184 395c25 0 38 38 38 90c0 53 -13 91 -38 91c-27 0 -39 -38 -39 -91c0 -52 12 -90 39 -90zM184 307c-96 0 -157 77 -157 178c0 103 61 179 157 179c94 0 156 -76 156 -179c0 -101 -62 -178 -156 -178zM622 75c25 0 39 38 39 90
c0 53 -14 91 -39 91s-39 -38 -39 -91c0 -52 14 -90 39 -90zM622 -13c-94 0 -156 77 -156 178c0 103 62 179 156 179s156 -76 156 -179c0 -101 -62 -178 -156 -178zM982 75c25 0 39 38 39 90c0 53 -14 91 -39 91s-39 -38 -39 -91c0 -52 14 -90 39 -90zM982 -13
c-95 0 -156 77 -156 178c0 103 61 179 156 179c94 0 156 -76 156 -179c0 -101 -62 -178 -156 -178z" />
    <glyph glyph-name="guilsinglleft" unicode="&#x2039;" horiz-adv-x="313" 
d="M283 61h-144l-125 181l125 180h144c-41 -60 -82 -120 -125 -180z" />
    <glyph glyph-name="guilsinglright" unicode="&#x203a;" horiz-adv-x="313" 
d="M174 61h-144l125 181l-125 180h144l125 -180z" />
    <glyph glyph-name="fraction" unicode="&#x2044;" horiz-adv-x="470" 
d="M124 0h-134l357 660h133z" />
    <glyph glyph-name="Euro" unicode="&#x20ac;" horiz-adv-x="600" 
d="M511 163l39 -118c-39 -40 -98 -58 -165 -58c-166 0 -245 116 -271 248h-71l23 74h40c-1 9 -2 17 -2 28s1 20 2 31h-63l23 75h49c26 130 108 244 268 244c69 0 128 -20 167 -57l-40 -118c-32 39 -79 54 -114 54c-44 0 -105 -19 -129 -123h194l-23 -75h-181
c-3 -11 -2 -20 -2 -31s0 -19 1 -28h205l-23 -74h-171c21 -104 93 -127 129 -127c39 0 80 15 115 55z" />
    <glyph glyph-name="trademark" unicode="&#x2122;" horiz-adv-x="821" 
d="M205 294h-73v319l-112 -1v62h300v-62l-115 1v-319zM762 295h-73v189c0 29 3 52 6 73h-3c-4 -13 -10 -36 -25 -67l-61 -134h-75l-59 134c-15 31 -22 54 -25 67h-3c1 -21 5 -44 5 -73v-189h-72v379h85l75 -170c11 -25 22 -54 31 -83h1c9 29 21 58 32 83l76 170h85v-379z
" />
    <glyph glyph-name="minus" unicode="&#x2212;" horiz-adv-x="600" 
d="M522 225h-444v118h444v-118z" />
    <glyph glyph-name="uni0E34.alt1" unicode="&#xf701;" 
d="M-265 629h-391v117h391v-117z" />
    <glyph glyph-name="uni0E35.alt1" unicode="&#xf702;" 
d="M-265 629h-391v117h250v95h141v-212z" />
    <glyph glyph-name="uni0E36.alt1" unicode="&#xf703;" 
d="M-363 629h-293v117h177c1 63 49 105 116 105s118 -48 118 -112c0 -63 -49 -110 -118 -110zM-363 701c23 0 36 16 36 39s-13 39 -36 39c-21 0 -36 -16 -36 -39s15 -39 36 -39z" />
    <glyph glyph-name="uni0E37.alt1" unicode="&#xf704;" 
d="M-265 629h-391v117h121v95h110v-102h49v102h111v-212z" />
    <glyph glyph-name="uni0E48.alt1" unicode="&#xf705;" 
d="M-288 629h-136l-4 209h145z" />
    <glyph glyph-name="uni0E49.alt1" unicode="&#xf706;" 
d="M-257 629h-210c-35 0 -56 22 -56 54v27c0 9 -5 14 -14 14h-61v120h123c43 0 68 -19 68 -63v-20c0 -9 4 -14 13 -14h137v-118z" />
    <glyph glyph-name="uni0E4A.alt1" unicode="&#xf707;" 
d="M-315 629h-75c-1 4 -6 16 -9 19c7 7 8 16 8 35s-10 34 -27 37l-39 -28l-47 26c-13 -4 -17 -22 -17 -35c0 -31 6 -40 14 -56h-105c-15 23 -22 55 -22 83c0 48 37 110 116 110l60 -45l53 46c68 -3 100 -46 100 -98c0 -13 -2 -24 -6 -34c21 20 29 59 29 94
c0 21 -7 45 -20 72h116c9 -20 14 -40 14 -71c0 -76 -56 -155 -143 -155z" />
    <glyph glyph-name="uni0E4B.alt1" unicode="&#xf708;" 
d="M-248 716l-101 3l4 -90h-132l4 90l-101 -3v99l101 -3l-4 90h132l-4 -90l101 3v-99z" />
    <glyph glyph-name="uni0E4C.alt1" unicode="&#xf709;" 
d="M-258 701h-101c-15 0 -25 -9 -25 -25v-48h-145v67c0 80 50 127 146 127h125v-121z" />
    <glyph glyph-name="uni0E48.alt2" unicode="&#xf70a;" 
d="M-70 629h-136l-5 209h145z" />
    <glyph glyph-name="uni0E49.alt2" unicode="&#xf70b;" 
d="M-15 629h-229c-35 0 -56 22 -56 54v27c0 9 -5 14 -14 14h-63v120h125c43 0 68 -19 68 -63v-21c0 -9 4 -14 13 -14h156v-117z" />
    <glyph glyph-name="uni0E4A.alt2" unicode="&#xf70c;" 
d="M-165 629h-75l-9 19c7 7 8 14 8 33s-10 34 -27 37l-44 -28l-51 26c-13 -5 -20 -22 -20 -35c0 -31 7 -38 15 -54h-109c-15 23 -23 55 -23 83c0 48 44 110 123 110l64 -45l58 46c68 -3 99 -46 99 -98c0 -13 -1 -23 -5 -34c21 20 28 59 28 94c0 23 -4 44 -19 72h116
c8 -20 13 -40 13 -71c0 -76 -56 -155 -142 -155z" />
    <glyph glyph-name="uni0E4B.alt2" unicode="&#xf70d;" 
d="M-37 716l-100 3l4 -90h-132l3 90l-100 -3v99l100 -3l-3 90h132l-4 -90l100 3v-99z" />
    <glyph glyph-name="uni0E4C.alt2" unicode="&#xf70e;" 
d="M-19 701h-110c-15 0 -25 -9 -25 -25v-48h-145v67c0 80 50 127 146 127h134v-121z" />
    <glyph glyph-name="uni0E0D.alt1" unicode="&#xf70f;" horiz-adv-x="948" 
d="M732 207v353h155v-362c0 -141 -88 -211 -245 -211s-244 70 -244 211v145c0 72 -37 104 -97 104c-51 0 -90 -27 -109 -55l71 -53v-30c-31 -13 -47 -40 -47 -81v-95c0 -10 5 -15 15 -15h59v-118h-108c-80 0 -121 43 -121 110v119c0 43 22 78 54 97l-82 64
c27 92 126 183 274 183c159 0 246 -96 246 -229v-137c0 -65 25 -97 89 -97c60 0 90 32 90 97z" />
    <glyph glyph-name="uni0E31.alt1" unicode="&#xf710;" 
d="M-263 629h-229c-81 0 -131 38 -131 130v56h144v-46c0 -15 8 -23 25 -23h191v-117z" />
    <glyph glyph-name="uni0E47.alt1" unicode="&#xf712;" 
d="M-270 629h-68c-36 0 -58 21 -74 52c-15 -32 -40 -57 -93 -57c-76 0 -136 47 -136 133c0 76 53 139 160 139h210v-102h-209c-36 0 -50 -16 -50 -37c0 -23 15 -39 38 -39c27 0 41 17 46 44h64c5 -20 16 -32 43 -32h69v-101z" />
    <glyph glyph-name="uni0E48.alt3" unicode="&#xf713;" 
d="M-268 893h-135l-3 177h141z" />
    <glyph glyph-name="uni0E49.alt3" unicode="&#xf714;" 
d="M-172 893h-211c-36 0 -56 21 -56 54v23c0 11 -6 17 -17 17h-60v112h110c48 0 76 -14 76 -58v-19c0 -11 6 -17 17 -17h141v-112z" />
    <glyph glyph-name="uni0E4A.alt3" unicode="&#xf715;" 
d="M-283 893h-71l-7 19c4 7 7 14 7 29c0 16 -9 31 -25 35l-42 -30l-44 27c-9 -4 -16 -19 -16 -35c0 -23 6 -32 13 -47h-104c-13 21 -21 49 -21 77c0 44 35 95 104 100l64 -48l54 49c64 -4 98 -49 98 -100c0 -7 0 -14 -1 -22c16 23 23 59 23 87c0 21 -6 44 -17 68h114
c9 -20 13 -37 13 -66c0 -73 -57 -143 -142 -143z" />
    <glyph glyph-name="uni0E4B.alt3" unicode="&#xf716;" 
d="M-184 967l-92 3l4 -77h-127l4 77l-93 -3v93l93 -3l-4 77h127l-4 -77l92 3v-93z" />
    <glyph glyph-name="uni0E4C.alt3" unicode="&#xf717;" 
d="M-228 858h-82c-16 0 -27 -10 -27 -26v-37h-138v60c0 72 44 117 132 117h115v-114z" />
    <glyph glyph-name="uni0E38.alt1" unicode="&#xf718;" 
d="M-61 -473h-141v90c0 15 -7 23 -22 23h-42v111h100c72 0 105 -28 105 -100v-124z" />
    <glyph glyph-name="uni0E39.alt1" unicode="&#xf719;" 
d="M-61 -249v-119c0 -72 -57 -113 -161 -113s-160 41 -160 113v14h-63v105h190v-105c0 -25 13 -35 33 -35c21 0 32 12 32 35v105h129z" />
    <glyph glyph-name="uni0E3A.alt1" unicode="&#xf71a;" 
d="M-43 -329c0 -51 -41 -91 -94 -91s-94 40 -94 91c0 52 41 92 94 92s94 -40 94 -92z" />
    <glyph glyph-name="uni0E2C.alt1" unicode="&#xf71d;" horiz-adv-x="687" 
d="M625 0h-183l-61 157l-38 121h-3l-36 -121l-59 -157h-183v560h147v-310l-8 -130h3l38 117l57 138h85l59 -138l40 -117h3l-8 130v85c0 39 -13 65 -54 65h-4l-24 62l103 141h153l-110 -134c60 -15 83 -62 83 -126v-343z" />
    <glyph glyph-name="nbspace" unicode="&#xa0;" 
 />
    <glyph glyph-name="dollar" unicode="$" horiz-adv-x="600" 
d="M339 -100h-69v87c-83 1 -159 18 -215 51l40 123c47 -25 115 -47 175 -47v157c-88 24 -209 79 -209 207c0 98 65 176 209 184v88h69v-88c66 -4 125 -18 176 -43l-39 -116c-44 19 -94 29 -137 32v-146c86 -30 203 -77 203 -205c0 -116 -87 -177 -203 -193v-91zM270 413v119
c-41 -9 -61 -26 -61 -52c0 -35 26 -52 61 -67zM339 246v-123c33 11 55 32 55 63c0 29 -24 45 -55 60z" />
    <glyph glyph-name="numbersign" unicode="#" horiz-adv-x="600" 
d="M407 0h-125l39 184h-102l-39 -184h-125l39 184h-72v104h94l16 76h-72v104h93l40 182h124l-38 -182h102l39 182h125l-39 -182h72v-104h-94l-17 -76h73v-104h-94zM343 287l18 78h-105l-18 -78h105z" />
    <glyph glyph-name="uni0E5B" unicode="&#xe5b;" horiz-adv-x="1164" 
d="M1121 260l27 -76c-38 -16 -72 -24 -101 -24c-57 0 -100 27 -127 68l-34 -114h-61l-52 146l-49 -164h-62l-48 139c-48 -116 -145 -199 -296 -199c-163 0 -264 109 -264 255c0 136 101 237 240 237c126 0 199 -104 199 -213h-107c-3 72 -38 114 -93 114
c-88 0 -120 -70 -120 -138c0 -95 68 -149 156 -149c152 0 223 173 231 307h72l59 -174l42 153h69l49 -145l37 122h65c0 -108 45 -159 100 -159c19 0 40 3 68 14z" />
    <glyph glyph-name="uni0E0E.alt1" unicode="&#xf71b;" horiz-adv-x="639" 
d="M578 -180h-163c-27 27 -70 49 -118 49c-56 0 -98 -16 -147 -55l-40 116c39 37 90 63 166 63c60 0 115 -27 146 -58v408c0 72 -41 104 -106 104c-53 0 -99 -27 -118 -55l84 -58v-29c-29 -13 -43 -36 -43 -77v-118c0 -67 -42 -110 -121 -110h-95v118h46c9 0 14 5 14 15v96
c0 43 19 75 52 92l-96 69c27 93 132 183 283 183c164 0 256 -96 256 -229v-524z" />
    <glyph glyph-name="uni0E0F.alt1" unicode="&#xf71c;" horiz-adv-x="639" 
d="M578 -180h-158l-89 61c-23 -37 -61 -69 -126 -69c-40 0 -83 9 -118 28l38 120c27 -16 56 -26 87 -26c53 0 86 23 100 69l110 -73v413c0 72 -41 104 -106 104c-53 0 -99 -27 -118 -55l84 -58v-29c-29 -13 -43 -36 -43 -77v-118c0 -67 -42 -110 -121 -110h-95v118h46
c9 0 14 5 14 15v96c0 43 19 75 52 92l-96 69c27 93 132 183 283 183c164 0 256 -96 256 -229v-524z" />
    <glyph glyph-name="notequal" unicode="&#x2260;" horiz-adv-x="600" 
d="M518 131h-232l-51 -131h-91l51 131h-113v107h156l31 81h-187v107h231c20 51 39 101 60 152h90l-60 -152h115v-107h-158l-31 -81h189v-107z" />
    <glyph glyph-name="infinity" unicode="&#x221e;" horiz-adv-x="788" 
d="M348 310c-34 43 -75 65 -122 65c-51 0 -75 -26 -75 -66c0 -44 30 -80 75 -80s93 37 122 81zM440 308c33 -45 73 -68 122 -68c51 0 75 29 75 69c0 41 -26 77 -75 77c-47 0 -89 -33 -122 -78zM393 237c-39 -47 -102 -88 -175 -88c-98 0 -170 63 -170 161
c0 93 71 157 172 157c80 0 132 -41 175 -88c35 45 93 88 173 88c99 0 172 -64 172 -159c0 -92 -69 -159 -172 -159c-76 0 -135 41 -175 88z" />
    <glyph glyph-name="greaterequal" unicode="&#x2265;" horiz-adv-x="600" 
d="M540 0h-463v83h463v-83zM540 332l-463 -232v147l296 127l-296 127v147l463 -231v-85z" />
    <glyph glyph-name="lessequal" unicode="&#x2264;" horiz-adv-x="600" 
d="M523 100l-463 232v85l463 231v-147l-297 -127l297 -127v-147zM523 0h-463v83h463v-83z" />
    <glyph glyph-name="partialdiff" unicode="&#x2202;" horiz-adv-x="618" 
d="M399 291c-19 19 -55 33 -91 33c-75 0 -118 -67 -118 -134c0 -51 27 -73 60 -73c65 0 121 61 149 174zM202 496l-23 115c47 29 122 51 190 51c137 0 214 -88 214 -233c0 -169 -116 -438 -353 -438c-123 0 -198 72 -198 187c0 139 116 257 274 257c62 0 90 -20 122 -41
c5 11 9 29 9 45c0 60 -35 96 -98 96c-45 0 -97 -12 -137 -39z" />
    <glyph glyph-name="summation" unicode="&#x2211;" horiz-adv-x="563" 
d="M536 -48h-501v74l219 291l-202 280v77h467v-106h-287l183 -250l-194 -260h315v-106z" />
    <glyph glyph-name="product" unicode="&#x220f;" horiz-adv-x="634" 
d="M558 -47h-146v604h-189v-604h-147v721h482v-721z" />
    <glyph glyph-name="pi" unicode="&#x3c0;" horiz-adv-x="662" 
d="M591 112l31 -99c-31 -19 -70 -27 -106 -27c-119 0 -142 69 -142 150v230h-92v-153c0 -76 -13 -176 -37 -213h-152c31 55 49 155 49 213v150c-23 -7 -51 -12 -84 -29l-23 107c29 21 97 43 139 43h443v-118h-104v-228c0 -24 7 -40 34 -40c15 0 29 5 44 14z" />
    <glyph glyph-name="integral" unicode="&#x222b;" horiz-adv-x="455" 
d="M17 -24l33 108c17 -9 34 -15 59 -15s42 11 42 55v377c0 121 49 186 152 186c60 0 104 -15 135 -32l-32 -108c-19 9 -33 14 -60 14c-25 0 -42 -11 -42 -54v-378c0 -121 -50 -186 -151 -186c-60 0 -105 14 -136 33z" />
    <glyph glyph-name="uni03A9" unicode="&#x3a9;" horiz-adv-x="762" 
d="M674 0h-253v79c76 46 160 154 160 287c0 125 -88 199 -200 199s-200 -74 -200 -199c0 -132 83 -242 160 -287v-79h-253v104h114c-61 47 -150 155 -150 279c0 191 149 303 329 303s329 -112 329 -303c0 -125 -90 -230 -150 -279h114v-104z" />
    <glyph glyph-name="radical" unicode="&#x221a;" horiz-adv-x="536" 
d="M313 -11h-118l-101 287h-84v108h176l67 -222l143 512h127z" />
    <glyph glyph-name="approxequal" unicode="&#x2248;" horiz-adv-x="600" 
d="M476 491l71 -74c-21 -60 -71 -130 -159 -130c-87 0 -125 74 -194 74c-39 0 -59 -27 -86 -74l-72 74c24 61 71 130 160 130c88 0 124 -74 194 -74c39 0 59 27 86 74zM476 270l71 -74c-21 -60 -71 -129 -159 -129c-87 0 -125 74 -194 74c-39 0 -59 -27 -86 -74l-72 73
c24 61 71 130 160 130c88 0 124 -74 194 -74c39 0 59 27 86 74z" />
    <glyph glyph-name="Delta" unicode="&#x2206;" horiz-adv-x="656" 
d="M446 120l-118 330l-121 -330h239zM640 0h-624l272 674h79z" />
    <glyph glyph-name="lozenge" unicode="&#x25ca;" horiz-adv-x="604" 
d="M302 143v1l121 198l-121 198l-121 -198zM349 0h-94l-226 341l226 343h94l226 -341z" />
    <glyph glyph-name="uni0E14" unicode="&#xe14;" horiz-adv-x="659" 
d="M598 0h-155v335c0 68 -40 112 -116 112c-84 0 -138 -61 -138 -173c0 -117 51 -159 109 -159c15 0 44 1 67 12l27 -109c-31 -19 -66 -25 -110 -25c-126 0 -246 81 -246 281c0 172 110 299 290 299c175 0 272 -103 272 -239v-334z" />
    <glyph glyph-name="uni0E15" unicode="&#xe15;" horiz-adv-x="672" 
d="M611 0h-155v386c0 31 -12 53 -37 58l-79 -49l-82 49c-43 -31 -69 -94 -69 -171c0 -123 53 -159 104 -159c23 0 51 2 75 13l27 -110c-31 -17 -66 -23 -107 -23c-137 0 -252 80 -252 281c0 140 77 266 205 298l99 -68l109 68c108 -25 162 -93 162 -189v-384z" />
    <glyph glyph-name="uni0E12" unicode="&#xe12;" horiz-adv-x="1014" 
d="M593 0h-142v386c0 31 -13 53 -38 58l-78 -49l-80 49c-43 -31 -66 -94 -66 -171c0 -123 53 -159 104 -159c23 0 51 2 75 13l27 -110c-31 -17 -66 -23 -107 -23c-137 0 -252 80 -252 281c0 140 74 266 202 298l97 -68l108 68c108 -25 163 -93 163 -189v-192
c23 -44 62 -81 114 -81c48 0 78 34 78 98v351h155v-358c0 -143 -66 -213 -182 -213c-83 0 -138 41 -165 76c-4 -23 -8 -44 -13 -65z" />
    <glyph glyph-name="uni0E0C" unicode="&#xe0c;" horiz-adv-x="948" 
d="M540 0h-142v343c0 72 -37 104 -97 104c-51 0 -90 -27 -109 -55l71 -53v-30c-31 -13 -47 -40 -47 -81v-95c0 -10 5 -15 15 -15h59v-118h-108c-80 0 -121 43 -121 110v119c0 43 22 78 54 97l-82 64c27 92 126 183 274 183c159 0 246 -96 246 -229v-152
c20 -47 59 -81 106 -81c49 0 73 33 73 98v351h155v-358c0 -143 -68 -213 -172 -213c-82 0 -135 41 -162 76z" />
    <glyph glyph-name="uni0E08" unicode="&#xe08;" horiz-adv-x="570" 
d="M287 0h-126l-52 190c-4 15 -8 22 -27 22h-37v116h79c60 0 94 -12 112 -78l33 -125h15c43 8 95 66 95 170c0 112 -58 152 -137 152c-60 0 -127 -22 -184 -69l-48 111c55 48 143 84 243 84c179 0 281 -103 281 -280c0 -158 -114 -293 -247 -293z" />
    <glyph glyph-name="uni0E10.alt1" unicode="&#xf700;" horiz-adv-x="570" 
d="M288 0h-127l-51 191c-4 15 -9 22 -28 22h-36v116h78c61 0 96 -13 112 -78l33 -126h15c48 8 95 70 95 170c0 108 -59 152 -136 152c-61 0 -126 -21 -185 -68l-48 111c56 47 143 83 243 83c34 0 65 -5 93 -16l37 46h171l-93 -113c47 -49 73 -116 73 -196
c0 -158 -113 -294 -246 -294z" />
    <glyph glyph-name="uni0E09" unicode="&#xe09;" horiz-adv-x="613" 
d="M552 0h-142l-14 65c-28 -45 -74 -75 -161 -75c-89 0 -148 42 -148 169v32c0 14 -6 21 -17 21h-29v116h82c80 0 119 -20 119 -95v-55c0 -44 16 -63 55 -63c45 0 88 35 99 70v146c0 77 -38 116 -115 116c-73 0 -144 -31 -196 -68l-55 111c72 51 158 83 265 83
c171 0 257 -89 257 -242v-331z" />
    <glyph glyph-name="uni0E28" unicode="&#xe28;" horiz-adv-x="649" 
d="M587 0h-155v341c0 59 -37 106 -108 106c-72 0 -110 -44 -110 -104v-102c15 33 45 60 97 60h50v-128h-60c-51 0 -76 -22 -85 -57v-116h-156v344c0 131 101 229 264 229c31 0 59 -6 86 -15l36 44h172l-93 -112c43 -39 62 -92 62 -148v-342z" />
    <glyph glyph-name="uni0E4D.alt1" unicode="&#xf711;" 
d="M-263 735c0 -67 -53 -118 -125 -118s-125 51 -125 118s53 118 125 118s125 -51 125 -118zM-388 697c23 0 36 16 36 39s-13 38 -36 38c-21 0 -36 -15 -36 -38s15 -39 36 -39z" />
    <glyph glyph-name="uni0E4D" unicode="&#xe4d;" 
d="M-12 735c0 -67 -53 -118 -125 -118s-125 51 -125 118s53 118 125 118s125 -51 125 -118zM-137 697c23 0 36 16 36 39s-13 38 -36 38c-21 0 -36 -15 -36 -38s15 -39 36 -39z" />
    <glyph glyph-name="Adieresis" unicode="&#xc4;" horiz-adv-x="648" 
d="M645 0h-163l-47 140h-223l-46 -140h-163l239 674h164zM394 266l-29 94l-40 161h-2l-41 -161l-28 -94h140zM286 806c0 -37 -28 -72 -77 -72c-51 0 -77 35 -77 72s26 72 77 72c49 0 77 -35 77 -72zM516 806c0 -37 -28 -72 -77 -72c-51 0 -78 35 -78 72s27 72 78 72
c49 0 77 -35 77 -72z" />
    <glyph glyph-name="Agrave" unicode="&#xc0;" horiz-adv-x="648" 
d="M645 0h-163l-47 140h-223l-46 -140h-163l239 674h164zM394 266l-29 94l-40 161h-2l-41 -161l-28 -94h140zM413 728l-221 105l79 115l184 -155z" />
    <glyph glyph-name="idieresis" unicode="&#xef;" horiz-adv-x="278" 
d="M215 0h-152v483h152v-483zM102 610c0 -37 -28 -72 -77 -72c-51 0 -77 35 -77 72s26 72 77 72c49 0 77 -35 77 -72zM332 610c0 -37 -28 -72 -77 -72c-51 0 -78 35 -78 72s27 72 78 72c49 0 77 -35 77 -72z" />
    <glyph glyph-name="ydieresis" unicode="&#xff;" horiz-adv-x="579" 
d="M366 35v32c-27 -33 -76 -67 -140 -67c-105 0 -166 62 -166 185v298h153v-291c0 -48 21 -72 64 -72c35 0 65 21 88 49v314h153v-441c0 -180 -110 -247 -254 -247c-76 0 -148 19 -193 46l37 112c43 -27 93 -37 136 -37c79 0 122 31 122 119zM251 610c0 -37 -28 -72 -77 -72
c-51 0 -77 35 -77 72s26 72 77 72c49 0 77 -35 77 -72zM481 610c0 -37 -28 -72 -77 -72c-51 0 -78 35 -78 72s27 72 78 72c49 0 77 -35 77 -72z" />
    <glyph glyph-name="Aacute" unicode="&#xc1;" horiz-adv-x="648" 
d="M645 0h-163l-47 140h-223l-46 -140h-163l239 674h164zM394 266l-29 94l-40 161h-2l-41 -161l-28 -94h140zM455 833l-222 -105l-41 65l184 155z" />
    <glyph glyph-name="Egrave" unicode="&#xc8;" horiz-adv-x="559" 
d="M522 0h-458v674h452v-132h-298v-133h275v-131h-275v-146h304v-132zM369 728l-221 105l79 115l184 -155z" />
    <glyph glyph-name="Eacute" unicode="&#xc9;" horiz-adv-x="559" 
d="M522 0h-458v674h452v-132h-298v-133h275v-131h-275v-146h304v-132zM431 833l-222 -105l-41 65l184 155z" />
    <glyph glyph-name="Ecircumflex" unicode="&#xca;" horiz-adv-x="559" 
d="M522 0h-458v674h452v-132h-298v-133h275v-131h-275v-146h304v-132zM461 731h-136l-46 77l-47 -77h-135l137 151h89z" />
    <glyph glyph-name="Edieresis" unicode="&#xcb;" horiz-adv-x="559" 
d="M522 0h-458v674h452v-132h-298v-133h275v-131h-275v-146h304v-132zM241 806c0 -37 -28 -72 -77 -72c-51 0 -77 35 -77 72s26 72 77 72c49 0 77 -35 77 -72zM471 806c0 -37 -28 -72 -77 -72c-51 0 -78 35 -78 72s27 72 78 72c49 0 77 -35 77 -72z" />
    <glyph glyph-name="Igrave" unicode="&#xcc;" horiz-adv-x="288" 
d="M222 0h-156v674h156v-674zM233 728l-221 105l79 115l184 -155z" />
    <glyph glyph-name="Iacute" unicode="&#xcd;" horiz-adv-x="288" 
d="M222 0h-156v674h156v-674zM277 833l-222 -105l-41 65l184 155z" />
    <glyph glyph-name="Icircumflex" unicode="&#xce;" horiz-adv-x="288" 
d="M222 0h-156v674h156v-674zM327 731h-136l-46 77l-47 -77h-135l137 151h89z" />
    <glyph glyph-name="Idieresis" unicode="&#xcf;" horiz-adv-x="288" 
d="M222 0h-156v674h156v-674zM107 806c0 -37 -28 -72 -77 -72c-51 0 -77 35 -77 72s26 72 77 72c49 0 77 -35 77 -72zM337 806c0 -37 -28 -72 -77 -72c-51 0 -78 35 -78 72s27 72 78 72c49 0 77 -35 77 -72z" />
    <glyph glyph-name="egrave" unicode="&#xe8;" horiz-adv-x="520" 
d="M430 128l33 -100c-43 -27 -104 -41 -168 -41c-177 0 -263 97 -263 256c0 137 76 252 241 252c136 0 215 -94 215 -210c0 -32 -7 -67 -15 -92h-292c11 -67 64 -95 125 -95c43 0 85 9 124 30zM178 277h177c0 68 -24 112 -79 112c-57 0 -91 -44 -98 -112zM349 532l-221 105
l79 115l184 -155z" />
    <glyph glyph-name="eacute" unicode="&#xe9;" horiz-adv-x="520" 
d="M430 128l33 -100c-43 -27 -104 -41 -168 -41c-177 0 -263 97 -263 256c0 137 76 252 241 252c136 0 215 -94 215 -210c0 -32 -7 -67 -15 -92h-292c11 -67 64 -95 125 -95c43 0 85 9 124 30zM178 277h177c0 68 -24 112 -79 112c-57 0 -91 -44 -98 -112zM393 637l-222 -105
l-41 65l184 155z" />
    <glyph glyph-name="ecircumflex" unicode="&#xea;" horiz-adv-x="520" 
d="M430 128l33 -100c-43 -27 -104 -41 -168 -41c-177 0 -263 97 -263 256c0 137 76 252 241 252c136 0 215 -94 215 -210c0 -32 -7 -67 -15 -92h-292c11 -67 64 -95 125 -95c43 0 85 9 124 30zM178 277h177c0 68 -24 112 -79 112c-57 0 -91 -44 -98 -112zM442 535h-136
l-46 77l-47 -77h-135l137 151h89z" />
    <glyph glyph-name="edieresis" unicode="&#xeb;" horiz-adv-x="520" 
d="M430 128l33 -100c-43 -27 -104 -41 -168 -41c-177 0 -263 97 -263 256c0 137 76 252 241 252c136 0 215 -94 215 -210c0 -32 -7 -67 -15 -92h-292c11 -67 64 -95 125 -95c43 0 85 9 124 30zM178 277h177c0 68 -24 112 -79 112c-57 0 -91 -44 -98 -112zM222 610
c0 -37 -28 -72 -77 -72c-51 0 -77 35 -77 72s26 72 77 72c49 0 77 -35 77 -72zM452 610c0 -37 -28 -72 -77 -72c-51 0 -78 35 -78 72s27 72 78 72c49 0 77 -35 77 -72z" />
    <glyph glyph-name="agrave" unicode="&#xe0;" horiz-adv-x="518" 
d="M310 195v22h-51c-56 0 -89 -25 -89 -72c0 -31 21 -51 50 -51c52 0 90 42 90 101zM458 0h-133l-15 62c-23 -39 -60 -74 -131 -74c-84 0 -149 58 -149 150c0 127 95 166 227 166h53v11c0 48 -24 71 -80 71c-51 0 -97 -15 -140 -40l-32 99c43 28 118 51 197 51
c140 0 203 -69 203 -186v-310zM348 532l-221 105l79 115l184 -155z" />
    <glyph glyph-name="aacute" unicode="&#xe1;" horiz-adv-x="518" 
d="M310 195v22h-51c-56 0 -89 -25 -89 -72c0 -31 21 -51 50 -51c52 0 90 42 90 101zM458 0h-133l-15 62c-23 -39 -60 -74 -131 -74c-84 0 -149 58 -149 150c0 127 95 166 227 166h53v11c0 48 -24 71 -80 71c-51 0 -97 -15 -140 -40l-32 99c43 28 118 51 197 51
c140 0 203 -69 203 -186v-310zM392 637l-222 -105l-41 65l184 155z" />
    <glyph glyph-name="acircumflex" unicode="&#xe2;" horiz-adv-x="518" 
d="M310 195v22h-51c-56 0 -89 -25 -89 -72c0 -31 21 -51 50 -51c52 0 90 42 90 101zM458 0h-133l-15 62c-23 -39 -60 -74 -131 -74c-84 0 -149 58 -149 150c0 127 95 166 227 166h53v11c0 48 -24 71 -80 71c-51 0 -97 -15 -140 -40l-32 99c43 28 118 51 197 51
c140 0 203 -69 203 -186v-310zM441 535h-136l-46 77l-47 -77h-135l137 151h89z" />
    <glyph glyph-name="atilde" unicode="&#xe3;" horiz-adv-x="518" 
d="M310 195v22h-51c-56 0 -89 -25 -89 -72c0 -31 21 -51 50 -51c52 0 90 42 90 101zM458 0h-133l-15 62c-23 -39 -60 -74 -131 -74c-84 0 -149 58 -149 150c0 127 95 166 227 166h53v11c0 48 -24 71 -80 71c-51 0 -97 -15 -140 -40l-32 99c43 28 118 51 197 51
c140 0 203 -69 203 -186v-310zM348 681h84c3 -80 -33 -132 -93 -132c-72 0 -95 51 -138 51c-25 0 -34 -22 -31 -45h-84c-3 79 33 132 94 132c71 0 98 -51 137 -51c25 0 32 20 31 45z" />
    <glyph glyph-name="adieresis" unicode="&#xe4;" horiz-adv-x="518" 
d="M310 195v22h-51c-56 0 -89 -25 -89 -72c0 -31 21 -51 50 -51c52 0 90 42 90 101zM458 0h-133l-15 62c-23 -39 -60 -74 -131 -74c-84 0 -149 58 -149 150c0 127 95 166 227 166h53v11c0 48 -24 71 -80 71c-51 0 -97 -15 -140 -40l-32 99c43 28 118 51 197 51
c140 0 203 -69 203 -186v-310zM221 610c0 -37 -28 -72 -77 -72c-51 0 -77 35 -77 72s26 72 77 72c49 0 77 -35 77 -72zM451 610c0 -37 -28 -72 -77 -72c-51 0 -78 35 -78 72s27 72 78 72c49 0 77 -35 77 -72z" />
    <glyph glyph-name="aring" unicode="&#xe5;" horiz-adv-x="518" 
d="M310 195v22h-51c-56 0 -89 -25 -89 -72c0 -31 21 -51 50 -51c52 0 90 42 90 101zM458 0h-133l-15 62c-23 -39 -60 -74 -131 -74c-84 0 -149 58 -149 150c0 127 95 166 227 166h53v11c0 48 -24 71 -80 71c-51 0 -97 -15 -140 -40l-32 99c43 28 118 51 197 51
c140 0 203 -69 203 -186v-310zM371 639c0 -58 -48 -106 -112 -106c-67 0 -113 47 -113 106s46 106 113 106c64 0 112 -48 112 -106zM259 600c19 0 29 16 29 39s-10 38 -29 38s-30 -15 -30 -38s11 -39 30 -39z" />
    <glyph glyph-name="Ugrave" unicode="&#xd9;" horiz-adv-x="682" 
d="M464 276v398h157v-397c0 -196 -97 -290 -280 -290s-280 94 -280 290v397h157v-398c0 -92 34 -159 123 -159s123 67 123 159zM430 728l-221 105l79 115l184 -155z" />
    <glyph glyph-name="Uacute" unicode="&#xda;" horiz-adv-x="682" 
d="M464 276v398h157v-397c0 -196 -97 -290 -280 -290s-280 94 -280 290v397h157v-398c0 -92 34 -159 123 -159s123 67 123 159zM472 833l-222 -105l-41 65l184 155z" />
    <glyph glyph-name="Ucircumflex" unicode="&#xdb;" horiz-adv-x="682" 
d="M464 276v398h157v-397c0 -196 -97 -290 -280 -290s-280 94 -280 290v397h157v-398c0 -92 34 -159 123 -159s123 67 123 159zM523 731h-136l-46 77l-47 -77h-135l137 151h89z" />
    <glyph glyph-name="Udieresis" unicode="&#xdc;" horiz-adv-x="682" 
d="M464 276v398h157v-397c0 -196 -97 -290 -280 -290s-280 94 -280 290v397h157v-398c0 -92 34 -159 123 -159s123 67 123 159zM303 806c0 -37 -28 -72 -77 -72c-51 0 -77 35 -77 72s26 72 77 72c49 0 77 -35 77 -72zM533 806c0 -37 -28 -72 -77 -72c-51 0 -78 35 -78 72
s27 72 78 72c49 0 77 -35 77 -72z" />
    <glyph glyph-name="Yacute" unicode="&#xdd;" horiz-adv-x="614" 
d="M384 0h-156v280l-225 394h167l136 -264h1h1l136 264h167l-227 -394v-280zM438 833l-222 -105l-41 65l184 155z" />
    <glyph glyph-name="Ydieresis" unicode="&#x178;" horiz-adv-x="614" 
d="M384 0h-156v280l-225 394h167l136 -264h1h1l136 264h167l-227 -394v-280zM269 806c0 -37 -28 -72 -77 -72c-51 0 -77 35 -77 72s26 72 77 72c49 0 77 -35 77 -72zM499 806c0 -37 -28 -72 -77 -72c-51 0 -78 35 -78 72s27 72 78 72c49 0 77 -35 77 -72z" />
    <glyph glyph-name="Acircumflex" unicode="&#xc2;" horiz-adv-x="648" 
d="M645 0h-163l-47 140h-223l-46 -140h-163l239 674h164zM394 266l-29 94l-40 161h-2l-41 -161l-28 -94h140zM506 731h-136l-46 77l-47 -77h-135l137 151h89z" />
    <glyph glyph-name="Eth" unicode="&#xd0;" horiz-adv-x="669" 
d="M287 0h-223v274h-61v110h61v290h223c224 0 346 -118 346 -334c0 -224 -122 -340 -346 -340zM220 134h67c117 0 189 59 189 206c0 149 -72 199 -189 199h-67v-155h123v-110h-123v-140z" />
    <glyph glyph-name="Ograve" unicode="&#xd2;" horiz-adv-x="712" 
d="M356 116c107 0 165 74 165 221c0 145 -58 221 -165 221s-165 -76 -165 -221c0 -147 58 -221 165 -221zM356 -13c-213 0 -321 153 -321 350s108 350 321 350s321 -153 321 -350s-108 -350 -321 -350zM445 728l-221 105l79 115l184 -155z" />
    <glyph glyph-name="Oacute" unicode="&#xd3;" horiz-adv-x="712" 
d="M356 116c107 0 165 74 165 221c0 145 -58 221 -165 221s-165 -76 -165 -221c0 -147 58 -221 165 -221zM356 -13c-213 0 -321 153 -321 350s108 350 321 350s321 -153 321 -350s-108 -350 -321 -350zM487 833l-222 -105l-41 65l184 155z" />
    <glyph glyph-name="Ocircumflex" unicode="&#xd4;" horiz-adv-x="712" 
d="M356 116c107 0 165 74 165 221c0 145 -58 221 -165 221s-165 -76 -165 -221c0 -147 58 -221 165 -221zM356 -13c-213 0 -321 153 -321 350s108 350 321 350s321 -153 321 -350s-108 -350 -321 -350zM538 731h-136l-46 77l-47 -77h-135l137 151h89z" />
    <glyph glyph-name="Odieresis" unicode="&#xd6;" horiz-adv-x="712" 
d="M356 116c107 0 165 74 165 221c0 145 -58 221 -165 221s-165 -76 -165 -221c0 -147 58 -221 165 -221zM356 -13c-213 0 -321 153 -321 350s108 350 321 350s321 -153 321 -350s-108 -350 -321 -350zM318 806c0 -37 -28 -72 -77 -72c-51 0 -77 35 -77 72s26 72 77 72
c49 0 77 -35 77 -72zM548 806c0 -37 -28 -72 -77 -72c-51 0 -78 35 -78 72s27 72 78 72c49 0 77 -35 77 -72z" />
    <glyph glyph-name="Otilde" unicode="&#xd5;" horiz-adv-x="712" 
d="M356 116c107 0 165 74 165 221c0 145 -58 221 -165 221s-165 -76 -165 -221c0 -147 58 -221 165 -221zM356 -13c-213 0 -321 153 -321 350s108 350 321 350s321 -153 321 -350s-108 -350 -321 -350zM445 877h84c3 -80 -33 -132 -93 -132c-72 0 -95 51 -138 51
c-25 0 -34 -22 -31 -45h-84c-3 79 33 132 94 132c71 0 98 -51 137 -51c25 0 32 20 31 45z" />
    <glyph glyph-name="Atilde" unicode="&#xc3;" horiz-adv-x="648" 
d="M645 0h-163l-47 140h-223l-46 -140h-163l239 674h164zM394 266l-29 94l-40 161h-2l-41 -161l-28 -94h140zM413 877h84c3 -80 -33 -132 -93 -132c-72 0 -95 51 -138 51c-25 0 -34 -22 -31 -45h-84c-3 79 33 132 94 132c71 0 98 -51 137 -51c25 0 32 20 31 45z" />
    <glyph glyph-name="ograve" unicode="&#xf2;" horiz-adv-x="564" 
d="M282 101c64 0 95 53 95 141s-31 140 -95 140s-95 -52 -95 -140s31 -141 95 -141zM282 -13c-166 0 -249 116 -249 255c0 140 83 254 249 254s249 -114 249 -254c0 -139 -83 -255 -249 -255zM371 532l-221 105l79 115l184 -155z" />
    <glyph glyph-name="oacute" unicode="&#xf3;" horiz-adv-x="564" 
d="M282 101c64 0 95 53 95 141s-31 140 -95 140s-95 -52 -95 -140s31 -141 95 -141zM282 -13c-166 0 -249 116 -249 255c0 140 83 254 249 254s249 -114 249 -254c0 -139 -83 -255 -249 -255zM413 637l-222 -105l-41 65l184 155z" />
    <glyph glyph-name="ocircumflex" unicode="&#xf4;" horiz-adv-x="564" 
d="M282 101c64 0 95 53 95 141s-31 140 -95 140s-95 -52 -95 -140s31 -141 95 -141zM282 -13c-166 0 -249 116 -249 255c0 140 83 254 249 254s249 -114 249 -254c0 -139 -83 -255 -249 -255zM464 535h-136l-46 77l-47 -77h-135l137 151h89z" />
    <glyph glyph-name="otilde" unicode="&#xf5;" horiz-adv-x="564" 
d="M282 101c64 0 95 53 95 141s-31 140 -95 140s-95 -52 -95 -140s31 -141 95 -141zM282 -13c-166 0 -249 116 -249 255c0 140 83 254 249 254s249 -114 249 -254c0 -139 -83 -255 -249 -255zM371 681h84c3 -80 -33 -132 -93 -132c-72 0 -95 51 -138 51
c-25 0 -34 -22 -31 -45h-84c-3 79 33 132 94 132c71 0 98 -51 137 -51c25 0 32 20 31 45z" />
    <glyph glyph-name="odieresis" unicode="&#xf6;" horiz-adv-x="564" 
d="M282 101c64 0 95 53 95 141s-31 140 -95 140s-95 -52 -95 -140s31 -141 95 -141zM282 -13c-166 0 -249 116 -249 255c0 140 83 254 249 254s249 -114 249 -254c0 -139 -83 -255 -249 -255zM244 610c0 -37 -28 -72 -77 -72c-51 0 -77 35 -77 72s26 72 77 72
c49 0 77 -35 77 -72zM474 610c0 -37 -28 -72 -77 -72c-51 0 -78 35 -78 72s27 72 78 72c49 0 77 -35 77 -72z" />
    <glyph glyph-name="ugrave" unicode="&#xf9;" horiz-adv-x="580" 
d="M519 0h-141l-13 57c-25 -35 -75 -70 -139 -70c-105 0 -166 64 -166 185v311h154v-303c0 -51 19 -72 63 -72c35 0 65 23 88 50v325h154v-483zM379 532l-221 105l79 115l184 -155z" />
    <glyph glyph-name="uacute" unicode="&#xfa;" horiz-adv-x="580" 
d="M519 0h-141l-13 57c-25 -35 -75 -70 -139 -70c-105 0 -166 64 -166 185v311h154v-303c0 -51 19 -72 63 -72c35 0 65 23 88 50v325h154v-483zM421 637l-222 -105l-41 65l184 155z" />
    <glyph glyph-name="ucircumflex" unicode="&#xfb;" horiz-adv-x="580" 
d="M519 0h-141l-13 57c-25 -35 -75 -70 -139 -70c-105 0 -166 64 -166 185v311h154v-303c0 -51 19 -72 63 -72c35 0 65 23 88 50v325h154v-483zM472 535h-136l-46 77l-47 -77h-135l137 151h89z" />
    <glyph glyph-name="udieresis" unicode="&#xfc;" horiz-adv-x="580" 
d="M519 0h-141l-13 57c-25 -35 -75 -70 -139 -70c-105 0 -166 64 -166 185v311h154v-303c0 -51 19 -72 63 -72c35 0 65 23 88 50v325h154v-483zM252 610c0 -37 -28 -72 -77 -72c-51 0 -77 35 -77 72s26 72 77 72c49 0 77 -35 77 -72zM482 610c0 -37 -28 -72 -77 -72
c-51 0 -78 35 -78 72s27 72 78 72c49 0 77 -35 77 -72z" />
    <glyph glyph-name="yacute" unicode="&#xfd;" horiz-adv-x="579" 
d="M366 35v32c-27 -33 -76 -67 -140 -67c-105 0 -166 62 -166 185v298h153v-291c0 -48 21 -72 64 -72c35 0 65 21 88 49v314h153v-441c0 -180 -110 -247 -254 -247c-76 0 -148 19 -193 46l37 112c43 -27 93 -37 136 -37c79 0 122 31 122 119zM421 637l-222 -105l-41 65
l184 155z" />
    <glyph glyph-name="ntilde" unicode="&#xf1;" horiz-adv-x="589" 
d="M529 0h-154v296c0 52 -16 79 -60 79c-39 0 -77 -23 -101 -50v-325h-153v483h141l12 -57c29 31 88 70 158 70c99 0 157 -67 157 -194v-302zM383 681h84c3 -80 -33 -132 -93 -132c-72 0 -95 51 -138 51c-25 0 -34 -22 -31 -45h-84c-3 79 33 132 94 132c71 0 98 -51 137 -51
c25 0 32 20 31 45z" />
    <glyph glyph-name="igrave" unicode="&#xec;" horiz-adv-x="278" 
d="M215 0h-152v483h152v-483zM228 532l-221 105l79 115l184 -155z" />
    <glyph glyph-name="iacute" unicode="&#xed;" horiz-adv-x="278" 
d="M215 0h-152v483h152v-483zM272 637l-222 -105l-41 65l184 155z" />
    <glyph glyph-name="ccedilla" unicode="&#xe7;" horiz-adv-x="469" 
d="M418 136l33 -107c-44 -28 -108 -42 -163 -42c-171 0 -256 111 -256 255c0 140 83 254 250 254c56 0 114 -14 162 -43l-31 -104c-31 17 -64 28 -111 28c-79 0 -117 -47 -117 -135s44 -138 116 -138c42 0 81 11 117 32zM288 -191h-159l114 149h96z" />
    <glyph glyph-name="Ccedilla" unicode="&#xc7;" horiz-adv-x="590" 
d="M527 157l37 -119c-52 -31 -126 -51 -207 -51c-200 0 -323 137 -323 350c0 197 117 350 328 350c75 0 135 -13 199 -48l-38 -117c-43 23 -92 34 -146 34c-125 0 -186 -79 -186 -219c0 -141 62 -219 187 -219c47 0 98 10 149 39zM349 -191h-159l114 149h96z" />
    <glyph glyph-name="uni007F" horiz-adv-x="497" 
 />
    <glyph glyph-name="uni00AD" unicode="&#xad;" horiz-adv-x="336" 
d="M326 192h-316v116h316v-116z" />
    <glyph glyph-name="afii61289" unicode="&#x2113;" horiz-adv-x="427" 
d="M335 119l29 -97c-29 -19 -69 -34 -122 -34c-93 0 -140 53 -143 153l-47 -31l-55 78c39 23 72 43 101 70v229c0 129 55 212 160 212c76 0 140 -56 140 -169c0 -112 -63 -227 -163 -308v-67c0 -41 13 -54 40 -54c21 0 41 6 60 18zM229 487v-133c21 39 49 93 49 176
c0 47 -8 75 -23 75c-17 0 -26 -39 -26 -118z" />
    <glyph glyph-name="Omega" unicode="&#x2126;" horiz-adv-x="762" 
d="M674 0h-253v79c76 46 160 154 160 287c0 125 -88 199 -200 199s-200 -74 -200 -199c0 -132 83 -242 160 -287v-79h-253v104h114c-61 47 -150 155 -150 279c0 191 149 303 329 303s329 -112 329 -303c0 -125 -90 -230 -150 -279h114v-104z" />
    <glyph glyph-name="estimated" unicode="&#x212e;" horiz-adv-x="818" 
d="M646 126h72c-76 -92 -192 -139 -309 -139c-205 0 -373 138 -373 336c0 196 168 336 373 336s373 -139 373 -328v-22h-610v-183c24 -29 126 -112 236 -112c115 0 209 72 238 112zM646 337v182c-30 41 -124 112 -238 112c-110 0 -212 -83 -236 -112v-182h474z" />
    <glyph glyph-name="uni0E2B" unicode="&#xe2b;" horiz-adv-x="629" 
d="M616 0h-159l-69 229c-14 47 -43 71 -86 72l-86 -72v-229h-154v560h154v-172l202 172h193l-206 -172c72 -15 106 -57 125 -113z" />
    <glyph glyph-name="apple" unicode="&#xf8ff;" horiz-adv-x="900" 
d="M450 701c298 0 355 -57 355 -355s-57 -355 -355 -355s-355 57 -355 355s57 355 355 355zM663 143v223c0 115 -93 196 -213 196s-213 -81 -213 -196v-223h85l95 102c10 -4 21 -6 33 -6c50 0 90 37 90 90c0 52 -40 90 -90 90s-91 -38 -91 -90c0 -18 4 -33 13 -48l-65 -71
v156c0 82 65 133 143 133s143 -51 143 -133v-223h70zM450 291c-20 0 -38 17 -38 38s18 37 38 37s37 -16 37 -37s-17 -38 -37 -38z" />
    </font>
</defs>
</svg>
